/* XPM */
static char *def908720a534710bf41c189658832319z43zHw9VZ3YGlzf[] = {
/* columns rows colors chars-per-pixel */
"64 64 240 2 ",
"   c #3B352F",
".  c #5B3D27",
"X  c #5D422C",
"o  c #65482C",
"O  c #67482D",
"+  c #734D2C",
"@  c #694B33",
"#  c #664B35",
"$  c #714D32",
"%  c #6C5239",
"&  c #735334",
"*  c #75543A",
"=  c #7C5B3B",
"-  c #795839",
";  c #7B542C",
":  c #514C47",
">  c #755C41",
",  c #7C5D41",
"<  c #69554D",
"1  c #7C6348",
"2  c #67665E",
"3  c #6E7168",
"4  c #83532B",
"5  c #87592D",
"6  c #835B34",
"7  c #855C39",
"8  c #8C643D",
"9  c #89643B",
"0  c #93683C",
"q  c #875E43",
"w  c #8B6543",
"e  c #8B6A44",
"r  c #8C6C4B",
"t  c #846647",
"y  c #946B42",
"u  c #956B49",
"i  c #95724C",
"p  c #9A744D",
"a  c #96774C",
"s  c #876A56",
"d  c #996C54",
"f  c #8A755A",
"g  c #9B7A54",
"h  c #9C7C5B",
"j  c #967556",
"k  c #8C704F",
"l  c #A5754C",
"z  c #A27E5B",
"x  c #A67957",
"c  c #B97D5A",
"v  c #B9714A",
"b  c #967968",
"n  c #8E7962",
"m  c #AC7D62",
"M  c #AF7764",
"N  c #BB7D68",
"B  c #C55558",
"V  c #C47C54",
"C  c #C3764C",
"Z  c #C7796B",
"A  c #D37571",
"S  c #9D815B",
"D  c #A4835C",
"F  c #A98559",
"G  c #B58259",
"H  c #B3925F",
"J  c #9B8466",
"K  c #9C8976",
"L  c #958977",
"P  c #A38463",
"I  c #AD8361",
"U  c #A48964",
"Y  c #AB8B64",
"T  c #A58B6A",
"R  c #AB8D6B",
"E  c #A7866B",
"W  c #B88768",
"Q  c #AC926D",
"!  c #A7916B",
"~  c #B3936C",
"^  c #B8966A",
"/  c #A98B73",
"(  c #B58C74",
")  c #AC9374",
"_  c #AF9A75",
"`  c #AA9678",
"'  c #B39572",
"]  c #B39A75",
"[  c #BB9B74",
"{  c #B3947A",
"}  c #B49C7A",
"|  c #BA9C7C",
" . c #BA9377",
".. c #B6A17E",
"X. c #BCA17D",
"o. c #B9A077",
"O. c #C5835B",
"+. c #CC8C64",
"@. c #C68968",
"#. c #D28C69",
"$. c #CC926C",
"%. c #C5946C",
"&. c #D4946B",
"*. c #D9966D",
"=. c #DB996E",
"-. c #D6996F",
";. c #C68A72",
":. c #D68A77",
">. c #C49374",
",. c #C99573",
"<. c #CA9B7A",
"1. c #D39574",
"2. c #D59A74",
"3. c #DC9C74",
"4. c #D59C7A",
"5. c #DC9D7A",
"6. c #D99576",
"7. c #E29D74",
"8. c #E39E79",
"9. c #C6A57A",
"0. c #DDA27B",
"q. c #DBA179",
"w. c #E2A176",
"e. c #E2A27B",
"r. c #E5A47D",
"t. c #958F88",
"y. c #B39D82",
"u. c #BB9C85",
"i. c #AD9C92",
"p. c #BBA483",
"a. c #BCA58A",
"s. c #BDAB8B",
"d. c #B7A588",
"f. c #BDAA92",
"g. c #BFB195",
"h. c #D89C81",
"j. c #D29684",
"k. c #E29C84",
"l. c #C1A584",
"z. c #C3AA85",
"x. c #C3A48A",
"c. c #C4AD8B",
"v. c #CBA988",
"b. c #DCA383",
"n. c #D5A687",
"m. c #CBB28D",
"M. c #C9B18A",
"N. c #D2B58E",
"B. c #C2AC93",
"V. c #C4A996",
"C. c #C4B294",
"Z. c #CBB595",
"A. c #C4B49B",
"S. c #CBBA9C",
"D. c #C9B79B",
"F. c #D4BD9C",
"G. c #D6B996",
"H. c #D5AC94",
"J. c #E3A583",
"K. c #E3AA85",
"L. c #E5AB8A",
"P. c #E9AD8A",
"I. c #E4A688",
"U. c #ECB28D",
"Y. c #EBB392",
"T. c #ECB89A",
"R. c #F0B692",
"E. c #F3B994",
"W. c #EAB390",
"Q. c #CCBCA3",
"!. c #C8B9A5",
"~. c #D4BBA6",
"^. c #C6B3A9",
"/. c #EEBAAC",
"(. c #E69CA9",
"). c #DAC29C",
"_. c #E1C49C",
"`. c #CDC2AC",
"'. c #CFC1A5",
"]. c #D2C4AC",
"[. c #D9C4A7",
"{. c #CEC3B3",
"}. c #D2C4B3",
"|. c #D4C9B4",
" X c #D5CCBA",
".X c #D9CDBB",
"XX c #D6C6B6",
"oX c #DAD1BD",
"OX c #E5CAA9",
"+X c #E9D2AC",
"@X c #E5C8B5",
"#X c #E8D5B6",
"$X c #F5CFB5",
"%X c #D9CFC2",
"&X c #DBD4C4",
"*X c #DBD5C9",
"=X c #DDD9CD",
"-X c #D7D2C2",
";X c #DEDAD4",
":X c #E2D5C4",
">X c #E2DBCD",
",X c #E5D9CA",
"<X c #E2DDD2",
"1X c #E2DFD9",
"2X c #E7DBD3",
"3X c #F7D9CB",
"4X c #E5E1D6",
"5X c #EAE3D4",
"6X c #E5E3DC",
"7X c #E9E5DD",
"8X c #EDE8DD",
"9X c #ECE6D5",
"0X c #E6E6E2",
"qX c #EAE7E1",
"wX c #ECEAE4",
"eX c #EEEEED",
"rX c #E7E9E2",
"tX c #F3ECE4",
"yX c #F0EEEB",
"uX c #F0E7E2",
"iX c #EDF0EE",
"pX c #F2F2EE",
"aX c #EEF2F1",
"sX c #F2F3F2",
"dX c #F1F3F2",
"fX c gray97",
"gX c #F6F6F6",
"hX c #F5F5F5",
"jX c #F4F4F4",
"kX c #F8F7F6",
"lX c #F6F8F5",
"zX c #F8F9F6",
"xX c #F6F7F8",
"cX c #F7F8F8",
"vX c #F8F8F8",
"bX c #F9F9F9",
"nX c #FAFAFA",
"mX c #F9F9F9",
"MX c #F8F7F8",
"NX c #F0EFF1",
/* pixels */
"gXgXgXgXgXgXvXgXvXvXvXvXvXvXvXvXvXvXvXvXgXvXvXvXzXgXgXvXvXgXeXpXgXgXvXxXdXpXdXvXvXvXkXvXgXgXdXdXgXgXgXgXgXjXdXgXgXgXgXdXaXaXaXaX",
"gXgXgXgXgXvXvXgXvXvXvXvXvXvXvXvXvXvXvXvXgXvXvXzXhXdXeXpXgXhXwXpXpXpXvXhXpXkXvXvXvXzXkXMXpX6X<XwXvXgXgXvXgXgXdXaXgXdXdXaXdXdXaXaX",
"gXgXgXgXgXvXvXvXvXvXvXvXvXvXvXvXvXvXvXvXgXvXvXgXeX>X|.|. X&X>XqXpXdXgXzXiXdXvXgXgXgXhXpX7XqXwX6XjXgXgXgXgXdXdXdXdXdXdXdXdXdXdXaX",
"gXgXgXgXgXgXgXgXvXvXvXvXvXvXvXvXvXvXvXvXvXvXgXqXXXm.s.C.s.s.A.].&X6XwXgXeXeXvXgXzXhXeX7XqXwX-XoX7XfXgXgXgXgXdXgXdXdXdXdXdXdXdXaX",
"gXgXgXgXgXgXgXgXgXgXgXgXgXvXvXvXvXvXvXvXkXeX<XZ.c.s.a.} } p.p.a.A.].*X7XwX8XjXkXgXiX>X*X&XD.g.C.-XcXgXgXgXgXgXdXgXdXdXdXdXdXdXdX",
"gXgXgXgXgXvXvXvXvXvXvXvXvXvXvXvXvXgXdX7X*X XQ.Z.s.{ Q ~ ' X.p.| p.a.C..X&X>X4XpXpX&X].Q.s.s.C.s.Q.4XcXgXgXvXgXgXdXjXdXjXdXdXdXdX",
"gXgXgXgXgXvXvXgXvXvXvXvXvXvXgXdXpXwX<X&X-X`.c.d.} ] X.z.p.p.a.c.p.} ] B.`.|..X>X-XQ.C......._ ..p.Z.wXxXgXdXgXgXgXjXdXdXdXdXdXdX",
"gXgXgXgXgXgXvXvXvXvXvXvXvXgXcXkX4X<X7XwX4XS.y.) ) a.a.a.] } } | c.p.l.] s.C.Q.'.C.p._ ! T T ) } _ a. XvXgXdXgXgXgXdXdXdXdXdXdXdX",
"gXgXgXgXgXgXvXvXvXvXvXvXgXgXgX7X&XqXeXqX Xs.{ J d.d...' Q F Y ^ | x.Q.m.[ | C.A.a.! U U ! _ Q ] ] p.`.dXdXdXgXgXdXdXdXdXdXdXdXdX",
"gXgXgXgXvXgXvXvXvXvXvXgXgXvXhX*XwXpX4X&Xc.s.P ) A.Q ' _ Y F F [ z.N.Z.[.c.~ l.Q.d.` / ) _ } ' ] c.c.<XvXgXgXdXdXgXjXdXdXdXdXdXdX",
"gXgXgXvXvXvXvXvXvXvXvXgXgXzX6XqXvX7X7X|.c.y.j S S z P ] Q F ^ 9.m.N.G.+X[.z.9.OXd.K K K ) Q Q C.S.|.vXvXgXgXgXdXdXdXjXdXaXaXaXaX",
"gXgXgXgXvXgXvXvXvXvXvXgXvXeX;XhXpX4X7XQ.s.T P g z P h U ] [ 9.v.OXF.F.+X[.OXN.[.} K ` K ` ! ! C.F.7XnXdXgXgXgXgXgXdXdXdXdXaXaXaX",
"gXgXgXgXgXvXvXvXvXvXvXgXgX6XwXlXwXwX<XA.] z U D Y ' R h ) m.p.X.N.F._.+XG.,X+X[.K f f f J J T } ].wXzXgXdXgXgXgXgXdXdXdXdXaXaXaX",
"gXgXgXgXvXgXvXvXvXvXgXvXwX7XhXpXpXyX.XB.R D P T Q g P ' ~ l.M.+XN.^ %.+XOXZ.~.B.h s t = = t J T A.4XgXvXgXgXgXgXgXgXdXdXdXdXaXaX",
"gXgXgXgXvXgXvXvXvXgXxXfX7XyXeXpXpX7XQ.A.Y Y Y R U i ^ ^ F G.N.Z.[.[ F ~ ~ Y ' | S f f 1 > 1 f ` ) A.4XpXgXgXgXgXgXgXdXdXdXdXdXaX",
"gXgXgXvXgXvXvXvXvXgXvXeXeXiXpXfXdX*X!.!.Q ] } p.R z.H l G 9.n.b.b.0.q.$.@.l j 9.k 1 f s 1 > 1 h ) ) `.6XeXvXgXgXgXgXdXdXdXdXdXaX",
"gXgXgXgXvXgXvXvXgXgXgXeXhXiXhXxXeX|.Q.Q.} h ` M.^ ~ l G 2.K.U.U.R.E.E.E.E.q.l ] j - t n b t = r ` ! } <X6XdXjXdXgXgXdXdXdXdXdXaX",
"gXgXgXgXgXvXvXvXgXzXiXeXhXpXpXfX7XS..XQ.Y j G.Y l x c 0.K.U.U.R.E.E.E.Y.U.U.4.~ y.1 > 1 f J f r J T U -X0XwXiXdXgXdXdXdXdXdXaXaX",
"gXgXgXgXgXvXvXvXgXzX1XhXgXhXpXwX%XS.|.s.U p.Y y Y G @.b.K.U.R.E.E.E.E.R.U.K.K.>.x.f o o @ * s J J T U S.6XwXwXdXdXeXdXdXdXdXdXdX",
"gXgXgXgXgXvXvXgXvXeX7XnXdXdXhX7X].].Q.p.R Y i g G.I ,.0.K.U.Y.E.E.E.E.Y.U.K.b.%. .d.& o @ & % 1 J ` ` !.7XqXeXwXdXdXdXdXdXdXdXdX",
"gXgXgXgXgXvXvXgXvX0XpXvXgXgXvXrXS.-X!.` j g g | G.x 4.0.K.P.U.E.E.E.R.U.P.K.0.<.I A.s o # % * = k J ) d.*X7XeXwX0XwXpXdXgXdXdXaX",
"gXgXgXgXgXvXgXvXgX0XgXxXgXgXvX>XQ. Xg.) j Y F 9.[ x 4.0.K.P.U.R.R.R.U.U.P.K.q.<.I B.s o % # o O = S T }  X7XgXgXhXwXwXeXeXdXdXaX",
"gXgXgXgXgXgXgXvXeXeXvXvXhXhXpX].].Q.s.U { m.F [ D I 4.b.J.L.U.U.R.R.U.U.L.I.0.>.I p.f % # # # O + r T } {.4XfXgXgXgXdXeXwXdXdXaX",
"gXgXgXgXgXgXvXgXeXhXxXvXjXfX4X]..X].f.D a.m.Y p P W $.2.b.L.P.U.U.U.U.P.L.J.4.>.m p.n # % @ o O & ; h } !.<XzXgXgXgXdXeXeXeXdXaX",
"gXgXgXgXgXgXMXpXwXgXgXvXjXgX&XoX-X.Xf.Q F.[ g 0 { I c V C 3.L.P.U.U.P.P.L.b.0.>.m | J o X # @ o = 6 e } `.;XdXgXgXgXgXeXeXeXdXaX",
"gXgXgXgXgXvXgXeXeXvXvXvXjXhX|.=X|.&Xd.| m.i 8 i ) x %.%.c C 0.L.K.K.J.#.O.V +.>.m l.p.% o X * @ - 9 9 ) {.1XhXdXgXgXgXdXeXdXaXaX",
"gXgXgXgXvXgXgXeXdXgXvXvXdXwX.X7XQ. Xd.] h 7 u q k x l % > x 3.K.K.L.#.v v O.V W m [ } > % . o & - e 9 U `.0XjXsXgXgXdXdXdXeXaXdX",
"gXgXgXgXgXgXgXdXvXvXvXvXdX>X:XqX`.|.] E i 7 F q j I s :   : W K.L.b.@.d t u W ;.m x m.1 t > @ $ - r 8 S !.rXdXdXgXgXdXdXdXeXdXdX",
"gXgXgXgXgXvXgXgXvXvXvXgXNXoXuX*X|.!.~ R u d v.D P I E t.2 2 / J.L.<.s < :   * W m d E , > > 1 - 6 e y g !.eXpXdXdXdXdXjXdXdXeXdX",
"gXgXgXgXgXgXgXgXgXvXvXgXqX&XhX}.oXc.R R x E v.~ ' m W s 3 i.u.J.L.<.t.3 : 2 < W x d E # & * * - r a e g A.pXpXeXdXgXjXjXdXdXeXaX",
"gXgXgXgXgXgXgXgXgXvXvXfXqXqXjX~.5Xl.T | ( ( v.R v.W >.b s b >.r.K.>.i.t.3 L / >.d m j @ - * = - i h i a f.wXdXeXgXgXdXdXdXdXdXdX",
"gXgXgXgXgXgXgXgXvXvXvXhXeXfX7X XtXQ.K F.( u.| R F.( 1.<. .>.4.r.r.<.b L K E >.W d d , * & = - t g D g a ..8XcXeXdXdXdXdXdXdXdXdX",
"gXgXgXgXgXgXgXgXgXvXvXhXeXnX<X<X>XQ.` F.P l.p ' Z.{ #.K.P.b.4.J.0.0.n. .j.h.;.m d q * * $ , t r U Y h a } <XnXyXdXgXgXdXdXdXdXaX",
"gXgXgXgXgXgXgXgXvXvXvXgXgXfX%X1XoX[.Z.m./ ' w { [.a.@.k.P.I.4.E.0.4.Y.W.b.<.W x 7 * = - + , k r U [ F S _  XnXpXpXgXdXdXdXdXdXaX",
"gXgXgXgXgXgXgXgXgXvXgXgXvXpX X7XA.c.+Xa.{ R h } F.V.N 5.I.I.2.J.2.1.Y.W.b.,.W d O r e - $ = t r Y M.Y D ] ].hXpXpXgXdXdXdXdXdXaX",
"gXgXgXgXgXgXgXgXgXgXgXgXvX4X-XwXd.z.).T / 9.D R z.V.W 2.5.J.b.6.1.b.L.I.4.@.N q = p e - & = e e } ).~ U } D.dXpXpXgXgXdXdXdXdXdX",
"gXgXgXgXgXgXgXgXgXgXgXvXvX*X4X.X] } ..T J 9.) ) } V.;.6.Z :.k.R.P.5.:.6.:.Z M - e p w - & 6 e 8 X.+X~ Y } g.qXhXpXgXdXdXdXdXdXdX",
"gXgXgXgXgXgXgXgXgXgXgXgXgX&XwXQ.{ ] X.) T ^ ' ` { V.W h.A B A :.A Z B :.;.Z d & r j 9 = 7 w e y X.+X[ ~ ..C.4XhXdXdXgXdXdXdXdXdX",
"gXgXgXgXgXgXgXgXgXgXgXgXpX&XzX.X} c.M.] { %.l.y.a.f.c h.k.A A (.A B A k.;.@.q = i i = = 7 9 i p l.+Xo.Q ..c.&XlXgXdXdXdXdXdXdXdX",
"gXgXgXgXgXgXgXgXgXgXgXxXwX*XhX].` ).G.` Z.OXZ.f.^.B.x j.k.:.:./.j.A 8.5.;.m * w h e ; 7 7 9 i g c.#XX.Q ..a. XdXgXdXdXdXdXdXaXaX",
"gXgXgXgXgXgXgXgXgXvXgXnX4X<XyXC.Q OXF.a.Z.M.y.y.~.B.] ~.4.b.6.:.:.h.0.2.>.q + 8 { w 6 w 7 8 z D c.+Xm.] p.S.-XpXdXgXdXdXdXdXaXaX",
"gXgXgXgXgXgXgXgXgXgXgXnX=XqXwX].m.+Xc.a.Y F f.]  Xx.].].%.J.Y.T.Y.J.4.,.d $ 6 y / 7 6 7 w 0 R R z._.Z.} ..&XhXgXpXpXdXdXdXdXaXaX",
"gXgXgXgXgXgXgXgXgXgXgXzX=XyXpX,XOXG.} a.I I ].a.:Xc.5Xm.~ <.r.Y.L.2.W u f K 4 I T 6 6 9 e 0 } Q m._.Z.| _ =XgXhXjXeXeXdXdXdXaXaX",
"gXgXgXgXgXgXgXgXgXgXvXyX=XhXhX:XG.p.a.|.' | XXV.:X].2XZ.tXx.c O.c v x l B.d.5 A.R 4 6 e 0 y a.} Z.).Z.p.) =XgXpXpXgXeXeXdXdXaXaX",
"dXdXgXgXgXgXgXgXgXgXnX0X1XvXgX'.M.| A.,X).[.{.!.5X8X5XhX:XW 5.+.#.=.3.G V.) u %X) 4 8 8 0 i s.} '.).F.c.' =XgXgXgXdXdXeXeXdXaXaX",
"gXgXgXgXgXgXgXgXgXgXgX0XeXnXwXQ.z.p. X,X+X#XB.:XpXpXhXvX].v.5.e.e.8.*.c V.E U uXE 4 8 7 0 l Z.p.`._.F.S.} -XcXgXdXdXdXdXeXeXaXaX",
"gXgXgXgXgXgXgXgXgXgXgXdXgXnX>X}.G.z.=XoXG.).B.pXkXkXdXhXnX~.*.8.8.8.3.O.V.h u.zXz 4 7 8 y z S.C.}.OXG.}.B. XdXdXdXdXdXeXeXdXaXaX",
"dXdXgXgXgXgXgXgXgXgXgXgXgXcX%X1XOXZ.4X].m.G.}.vXkXvXgXgXxXG.3.8.r.8.3.@.x.z !.pXp 4 y y 0 Y ].`.#X+X).&X{.*XgXgXdXdXdXdXeXNXaXeX",
"dXdXgXgXgXgXgXgXgXgXgXgXgXdX}.eX#XF.qXXXG.G.}.vXgXcXgXgXdXv.3.e.e.8.3.+.>.i  XtX8 4 p y 0 p.5X2X>X+X[.wX0XwXgXdXdXdXdXeXeXdXiXiX",
"dXdXdXdXgXgXgXgXgXgXgXgXxXjX}.wX#X].qX#XOXG.}.nXgXgXgXnX2X<.5.w.e.w.3.&.%.w :X5X6 8 y 0 y Q.dXwXwX#X[.dXgXpXpXdXdXdXeXeXdXdXiXaX",
"dXdXdXdXdXdXgXgXgXgXgXgXgXkX>XqX#XQ.7X:X_.x.<XvXgXjXzXhXH.2.0.e.J.J.7.-.$.W qX}.5 y p y l XXgXpXiX7X XeXgXhXdXdXdXdXeXiXaXdXiXiX",
"dXdXdXdXdXdXgXgXgXgXgXgXgXnX>X8X+XXX7XQ.<.f.yXvXnXnXtXG.1.0.8.e.P.Y.e.5.&.<.uXQ.0 y x p F &XhXpXpXwXwXdXgXdXdXdXdXdXeXaXdXdXiXiX",
"jXjXdXdXdXdXdXgXgXgXgXgXgXnX*X#XF.;X7X~.<.{.zXuX2X@X4.&.w.e.e.w.U./.P.r.3.#.<..X!.| ~ x ~ 7XdXiXpXeXpXiXdXgXdXdXdXeXaXaXdXdXaXaX",
"dXjXjXdXdXdXdXgXgXgXgXgXgXvX1X).D.qXwX6XV.<.n.,.$.+.*.5.e.e.e.w.T.3XT.J.7.*.O.@.~.5XQ.) [ tXpXpXdXeXdXpXeXeXwXeXdXeXaXaXaXdXaXaX",
"dXdXdXdXjXjXdXdXdXgXgXgXgXxXpX).V.dXjX,Xv.$.&.*.*.3.5.5.5.5.e.r.T.$XY.J.7.=.*.#.O.%.v.| S.pXpXpXsXeXdXpXpXeXeXdXNXNXaXaXaXeXeXNX",
"dXjXdXdXdXjXdXdXdXgXdXgXgXgXvX!.^.kX~.1.3.5.3.5.3.3.=.*.3.3.3.5.8.e.5.3.&.-.*.&.&.+.+.@.v.uXfXpXdXdXdXdXdXdXdXdXeXNXNXdXeXeXiXiX",
"dXdXdXdXjXjXjXdXdXdXdXdXhXgXgX;X0X@X2.0.0.5.3.3.-.-.3.3.=.3.3.*.3.3.3.*.*.#.&.*.*.&.$.*.+.u.hXgXdXdXdXdXdXdXNXNXdXNXNXdXaXeXeXeX",
"dXdXdXdXjXjXdXdXdXdXdXdXsXgXsXxXwXb.q.e.e.5.5.2.2.5.3.3.3.3.5.3.3.3.3.=.=.*.*.*.-.#.&.-.*.@.H.7XgXdXdXdXdXdXdXeXNXNXdXeXeXeXeXeX",
"dXdXdXdXjXjXjXdXjXjXdXdXdXgXjXfXXX5.w.e.0.0.0.2.2.5.3.3.3.3.3.3.3.3.-.*.*.3.3.3.3.3.3.5.-.3.&.v.yXhXdXdXdXdXdXeXdXdXdXeXeXeXNXeX",
"dXdXdXdXdXjXjXdXjXjXdXdXdXdXgXqXb.w.w.e.0.q.0.2.2.5.3.3.3.3.5.5.3.3.2.-.3.3.3.3.3.7.5.w.3.=.=.&.~.gXdXdXdXdXdXdXdXdXeXeXiXiXiXeX",
"dXdXdXdXdXdXdXdXjXjXdXdXdXdXcX@X3.8.e.q.0.5.5.2.3.3.5.5.3.5.5.5.3.e.5.5.5.3.*.3.0.e.J.U.b.U.3.-.,.2XgXdXNXNXeXdXdXdXeXeXiXiXaXiX",
"dXdXdXdXdXdXdXdXjXjXdXdXdXgXyXH.7.Y.J.2.q.5.0.2.2.3.3.3.3.3.3.3.3.5.5.5.5.q.5.3.e.J.@X3XL.$Xe.3.&.v.aXdXyXeXeXdXdXeXeXeXeXeXaXaX",
"dXdXdXdXdXdXdXdXdXjXdXdXdXfX,X4.J.3XI.1.5.0.b.1.$.1.3.3.3.5.3.-.3.5.5.5.3.5.8.e.e.K.OXOX-.e.e.w.-.@.>XjXeXNXNXdXdXeXeXeXeXNXaXaX",
"dXdXdXdXdXdXdXdXjXdXdXdXdXgX~.*.T.3X7.+.2.0.b.4.4.3.5.q.5.5.5.3.3.5.5.5.3.5.5.q.e.J.J.=.+.=.5.e.2.@.!.jXeXNXNXeXNXeXeXeXeXeXeXeX"
};
