/* XPM */
static char *_dde1dace9d849918fef212dfb5a185baSXRN7mF9MpgRm8X[] = {
/* columns rows colors chars-per-pixel */
"64 64 232 2 ",
"   c #3C2B12",
".  c #3F3514",
"X  c #432D11",
"o  c #4C3B1B",
"O  c #473617",
"+  c #533C19",
"@  c #4C3D21",
"#  c #513D23",
"$  c #51421F",
"%  c #4F4323",
"&  c #544324",
"*  c #5A4B25",
"=  c #55452A",
"-  c #5C4C2B",
";  c #584928",
":  c #5E5129",
">  c #5E4B31",
",  c #5C5433",
"<  c #614F29",
"1  c #635224",
"2  c #64532D",
"3  c #6C5A2C",
"4  c #68562B",
"5  c #645432",
"6  c #695734",
"7  c #675834",
"8  c #6C5B35",
"9  c #6C5C3A",
"0  c #655939",
"q  c #725B33",
"w  c #725E3B",
"e  c #6A562F",
"r  c #6F613C",
"t  c #6F6D3D",
"y  c #746235",
"u  c #786633",
"i  c #74633C",
"p  c #79663C",
"a  c #726D3D",
"s  c #7B6A3E",
"d  c #756C35",
"f  c #75743C",
"g  c #73612F",
"h  c #6A5F40",
"j  c #746442",
"k  c #796643",
"l  c #7C6B44",
"z  c #7C6C4B",
"x  c #756A4A",
"c  c #75734D",
"v  c #7C734C",
"b  c #7C7647",
"n  c #757552",
"m  c #7A7652",
"M  c #7D7A55",
"N  c #7E7B5A",
"B  c #787759",
"V  c #75694A",
"C  c #7E7E60",
"Z  c #806D3C",
"A  c #82713D",
"S  c #826E45",
"D  c #856E4A",
"F  c #827345",
"G  c #83744C",
"H  c #89754D",
"J  c #86794B",
"K  c #8B7B4D",
"L  c #877B45",
"P  c #847552",
"I  c #8A7652",
"U  c #827C56",
"Y  c #8B7B53",
"T  c #827E59",
"R  c #8B7B5A",
"E  c #927C54",
"W  c #927D5A",
"Q  c #997E58",
"!  c #907E49",
"~  c #827F61",
"^  c #92834D",
"/  c #8C8154",
"(  c #85825D",
")  c #85835C",
"_  c #89845E",
"`  c #8A895E",
"'  c #868656",
"]  c #938354",
"[  c #978952",
"{  c #9B8B55",
"}  c #94835B",
"|  c #9A845C",
" . c #958B5B",
".. c #9D8D5A",
"X. c #988652",
"o. c #9E905C",
"O. c #9F9054",
"+. c #8F814F",
"@. c #A08F5A",
"#. c #A08F57",
"$. c #A1915B",
"%. c #A09056",
"&. c #858262",
"*. c #8A8661",
"=. c #8C8A64",
"-. c #8D8B6A",
";. c #8A8669",
":. c #948462",
">. c #9A8662",
",. c #918C66",
"<. c #9C8B64",
"1. c #928E69",
"2. c #9D8D6A",
"3. c #8F9068",
"4. c #9E9164",
"5. c #94916C",
"6. c #9B936D",
"7. c #969371",
"8. c #9A9571",
"9. c #9C9875",
"0. c #A38C64",
"q. c #A28D6B",
"w. c #AA8F68",
"e. c #A39266",
"r. c #A4946C",
"t. c #AB946C",
"y. c #AB996E",
"u. c #A6996D",
"i. c #A49472",
"p. c #A69973",
"a. c #AB9B73",
"s. c #AC9D7B",
"d. c #A69878",
"f. c #B39C74",
"g. c #B19D7A",
"h. c #B39975",
"j. c #A18F72",
"k. c #ADA17C",
"l. c #AAA078",
"z. c #B2A175",
"x. c #B4A47B",
"c. c #BAA37B",
"v. c #B7A97D",
"b. c #BAA97E",
"n. c #C0A97E",
"m. c #A19E80",
"M. c #AAA482",
"N. c #AEA98A",
"B. c #B4A582",
"V. c #BBA581",
"C. c #B5A985",
"Z. c #BCAC84",
"A. c #B6AC8B",
"S. c #BBAD8B",
"D. c #B1A689",
"F. c #BEB184",
"G. c #BCB18D",
"H. c #B5B08D",
"J. c #B2AC91",
"K. c #BEB392",
"L. c #BEB49A",
"P. c #B9B392",
"I. c #C2AC84",
"U. c #C3AD8B",
"Y. c #C1A785",
"T. c #C1B186",
"R. c #C3B38C",
"E. c #CAB58C",
"W. c #C7B88E",
"Q. c #CAB98E",
"!. c #C3B592",
"~. c #C6B895",
"^. c #CABB95",
"/. c #C5BB9B",
"(. c #CCBD9B",
"). c #C5B695",
"_. c #D0BD95",
"`. c #D0BF9C",
"'. c #C9BFA2",
"]. c #C6BEA1",
"[. c #CEC19D",
"{. c #CEC096",
"}. c #D2C196",
"|. c #D3C39C",
" X c #D5C89F",
".X c #D9C99E",
"XX c #DAC79C",
"oX c #CDC2A3",
"OX c #CDC3A9",
"+X c #D3C5A3",
"@X c #D5C9A5",
"#X c #DBCBA4",
"$X c #D1C5AA",
"%X c #D5CAAB",
"&X c #DBCDAB",
"*X c #DEC7A2",
"=X c #DDD1AD",
"-X c #DCD1A7",
";X c #D8CCB1",
":X c #DED2B2",
">X c #DED3B9",
",X c #DED9B7",
"<X c #E2CEAC",
"1X c #E2D3AD",
"2X c #E6D6AB",
"3X c #E2D5B3",
"4X c #E4D9B5",
"5X c #E9DBB4",
"6X c #E1D6BB",
"7X c #E5DBBA",
"8X c #EADDBB",
"9X c #E8D7B4",
"0X c #ECE2BD",
"qX c #F0E5BF",
"wX c #E7DDC1",
"eX c #E8DDC0",
"rX c #EEE4C3",
"tX c #EFE9CA",
"yX c #EFE7C8",
"uX c #F0E4C3",
"iX c #F1E9C6",
"pX c #F2ECCC",
"aX c #F0E7C9",
"sX c #F4F0CE",
"dX c #F4EED2",
"fX c #F6F2D4",
"gX c #FAF5D4",
"hX c #F7F4D9",
"jX c #F9F6DA",
"kX c #FAF9DC",
"lX c #FCFBE2",
"zX c #FFFFE9",
/* pixels */
"n m n m c m m n n n n n n n m c c c c c c c c m n n M n n m m m n B B B B N N M C N n N c M T m m M M M M M M M M N N T M T T M ",
"m m M M M m M M M m m n n c m M m m m m m M m m m m M m m M M M N C C N N ~ N N T N M T c M T T M T T ) ,.1.) M ) N ) ) ) ) ) c ",
"M m M M M M M m M M M M M ( R U M M m M M m m m M M M m M M M M &.&.&.&.~ &.T &.*.&.) T m T T T ) _ v z j / 6.) ) ) ) ) _ _ ' b ",
"T M M M M N T M M M M T U G P v m P U T M M M M M M N N N M N N ~ &.&.~ &.&.T &.*._ ) &.n M *.( P w 8 i H H I _ ) ) ) *._ _ ' f ",
"M T M T T N T T M M M T P I } R R z j U U M M M M T N T T N N N &.&.;.;.&.&.*.*.=.*.) ) m U _ G 7 k l Y E >.R ,._ _ _ _ _ ' ' b ",
"T T M T T T T ) T T T T 2.r.2.q.i.2.I i G T M M M ) ) ) T T T ) *.*.-.;.&.&.*.*.=.-.*.) n P b 8 S l z I | q.<.6.) _ ) *.*.' ' L ",
") ) ) T T T T T T N T ( r.s.p.r.2.p.>.G 9 P T T ) T ) T ) ) ) ) *.=.;.;.*.*.*.*.&.-.-.) c l 3 i l i I | | 0.q.*._ ) _ *.*.` ' L ",
") ) ) M T ) T T ) N ) U i.S.g.a.I k z 2.I 9 G ( T T ) T ) ) ) _ ) T N N T _ N &.~ N N m z 4 r I s l ] | 0.t.i.1.*._ _ *.` ` ' b ",
") ) ) _ T M ) ) ) T ) P s.!.V.g.h.Y l 2.i.I 4 U ) ) ) T T ) ) _ ) m m M ) ) ) _ ) m c v r 8 :.H 8 Y <.e.t.t.g.s.*.) _ *.*.` M f ",
") ) ) ) ) ) ) ) ) ) _ P r.U.U.g.h.t.} G G Y y i *.) ) T ) T ) _ &._ ) ) _ _ _ ) _ *.m z 5 R G 8 l | r.a.y.t.B.p.( _ _ _ _ ' t d ",
") ) ) _ _ ) ) ) ) ) _ m <.R.U.c.a.y.} i ] 2.R 7 v *.) ) ) ) ) *.*._ *.) *._ _ *.*.T j 5 0 k 8 k } t.t.f.f.f.i.q.( ` _ _ _ b t d ",
") ) ) ) ) ) _ ) ) ) _ T 2.!.U.f.t.t.0.l p >.P k 4 I T T *.) ) ) ) ) T ) ) ) ) *.T j 0 - z 2.I Y r.h.a.f.f.c.h.>._ _ _ *.*.b t d ",
") _ _ _ _ *._ _ _ ) ) ) 2.).I.f.t.0.0.K 3 I P l 8 2 R _ / <.i.k.7.6.7.7.8.6.,.( r i 2 2 R i.l Y r.y.t.f.f.V.U.s.) _ *.*.*.b a d ",
"_ _ _ ) _ _ ) _ *.*.) ) 2.U.U.c.f.t.| | s S G y y w l E Y t.^.4XpXyXtXrX4X^.r.P z G 5 R R 8 6 ] e.a.f.f.c.U.U.2.) ` _ -.=.b a f ",
"_ _ *._ _ _ _ ) _ *.*._ :.B.R.V.g.t.t.q.>.I R i w i i s ] b.#X8XpXdXdXpX0X|.i.:.W R :.i.:.m i Y t.f.f.f.c.V.g.R =.=.=.=.3.M t f ",
"_ *.*.*._ *._ _ _ _ *.*.} a.E.Y.f.h.0.q.i.P D k j l k H t.E.1XpXdXdXdXpXpX8X@X(.2.W j.d.d.1.G R t.b.c.f.f.Y.i.*.=.*.=.=.3.' a a ",
"*._ _ _ *.*.*.*._ _ *.*.Y <.Z.Y.f.h.0.0.<.k j k z l p 0.E.<X3XrXsXdXfXpXpXyX8X@XZ.i.d.i.i.>.D | t.f.c.f.f.c.2.=.*.=.=.*.` / b a ",
"_ _ _ _ *.*._ *.*._ *.*.( <.f.c.t.0.0.q.W k l z k S E c.*X9X0XuXpXdXfXpXfXfXiX8X|.V.p.i.>.W S S t.t.t.t.t.a.<.` ` ` / U J J J F ",
"_ *._ *.*._ _ _ *.*.*.*._ Y <.f.t.| | Q D l k l l ] z._.<XuXrXrXpXpXhXfXfXpXpXpX9XZ.f.i.2.:.Y p | 0.0.w.| Y / / Y K J J J G F J ",
"*.-.` _ *.*.*.*.*.*.*.*.` J H E 0.| D S l k i k | Z.}.#X9XrXrXiXpXfXjXhXfXsXpXdXuX|.V.p.2.>.} E E | E Q K K Y K J J J J G G J F ",
"*.*.*.*.*._ *._ *.*.*.*.` ` F p q q i l z G D q.).&X5X8XuXrXrXpXpXhXjXkXkXjXjXdXpX0X=X(.C.<.0.| E | Q D E ] Y Y K K K K K K J J ",
"*.=.*.*.=.*.=.*.=.*.*.*.*.,.I i 4 * w w D I r.^.&XuXpXpXdXtXyXpXdXhXkXkXkXkXfXdXpXpXpXiX@X<.t.] E 0.H H E ] ] +.] ] / / K K K K ",
"*.*.-.=.*.=.-.*.*.*.*.*.*.=.*.y < 6 8 6 I x.E._.E.R.&XpXhXdXtXpXdXjXkXkXkXjXjXfXgXgXpX0X5X Xp.| E } W H L { [ ] ..] ] ] ^ X.^ ^ ",
"*.*._ -.-.*.=.=.*._ =.*.*.-.,.k 8 w w q <.R.Q.t.F i l K.dXfXtXtXpXfXkXjXlXjXfXhX-Xx.b.{.|.1X^.a.W Y } Z ! { { { [ [ [ [ { ^ ^ ^ ",
"*.*.-.-.-.*.*.*.*.*.-.=.-.=.1.P - w k F y.I.| i i , j R @XfXpXyXpXfXhXjXkXfXfX!.G s G | Z. X5X!.2.I 3 A $.{ { { { { [ [ [ ^ ^ [ ",
"-.-.-.-.-.-.-.-.-.=.*.=.-.=.1.j < j Y z.Z.b.F I 9 0 U :.p.rXsXiXpXdXfXjXhXjX@XY p.G } e.e.Z.#X%X!.<.4 u A L ^ ^ { { { ....{ ..{ ",
"*.*.-.-.=.=.=.=.-.-.-.1.1.,.1.8 8 2.x.^. Xx.Y z - , m r.] 1XyXpXpXfXjXhXdXpXi.4.6.h j r.t.f.&XrX<XS.F 1 : * 1 1 4 3 g g u u s L ",
"=.-.,.=.*.*.*.=.,.1.5.-.-.,.1.i R !.@X3X9XR.l P % ; ( p.Y #X8XpXdXhXjXhXhX3XY r.4.0 ,  .z.-XfXdX8X%Xs.Y X.X.^ K ^ L A u u y 3 4 ",
"=.-.-.-.-.,.,.1.1.1.5.5.1.1.-.,.S.@X4X8X8X0X:.2 . % 4.Y Y |.8XdXfXhXkXkXfX3XG  .z.r ;  .y.0XjXjXpX9XG.] { { { { ..........@.{ { ",
"*.-.-.,.5.1.1.-.5.5.1.5.1.1.5.s.oX3X4X8XiXpXyXC.v v <. .v.@XrXdXhXjXjXjXdXrXY a  .i * K G.kXhXhXiX+X).<.^ ^ ....$.@.$.$...{ ....",
"1.-.=.,.=.1.=.,.,.,.1.1.1.1.9.B.oX&X4X8XrXpXpXgXgXyXyXpX9X#X9XaXfXkXkXhXpX0X8XK.G.H.H.,XkXjXgXsX7X@X).<.] X.....$.$.$.$.....$.$.",
"-.=.5.,.=.=.,.1.,.1.1.1.7.M.D.K.+X&X4XrXrXyXpXpXpXfXfXyX9X.X5XyXpXjXjXkXdXtXjXlXlXzXzXlXfXsXpXyX:X&X^.e...o.....@...@...........",
"-.,.,.,.=.,.=.,.1.1.1.5.A.%X/.K.+X&X4X8XrX0XyXpXpXpXpXrX8X#X1X0XiXsXfXjXpXpXjXfXfXjXjXjXfXpXuX8X4X@X!.s.x.a.............{ { { { ",
"=.=.,.,.1.,.=.,.1.1.7.M./.:XS.K.+X&X:X7X0X7XrXrXyXpXiX0X0X#X1X5XqX0XrXrXtXdXkXlXkXkXkXhXhXpXuX9X:X+XG.(.+Xs.] X...$.$.$.$.$.$...",
"5.5.,.1.1.,.1.1.5.5.6.P.oX=Xs.G.+X&X4X4X7X0X7X0XiXrXiX8X0X.XXX1X5X2X5X5X3XdXlXlXkXfXfXfXpXiX8X1X@X(.s.B.&XG.b 1 4 3 3 u u Z L ^ ",
"5.1.1.1.-.-.1.1.7.9.M./.@X@X} S.%X=X4X4X3X9X0X4X9X0XiXiXuXXXE.}.XXXX#X.X@XfXlXkXfXrXrXrX8X4X&X&X@X(.s.2.%XK.} K L L A u 3 3 1 1 ",
",.5.1.1.1.-.,.5.d.N./.oX%X<.3 G.:X4X4X7X3X4X7X9X=X4X0XyXuX#Xc.e.E.I.0.z.@XlXjXfXiX0X1X@X#X&X&X&X@X(.B.2.+XS./ ] { $.$...@.$...{ ",
"=.5.1.5.5.1.5.5.M./.(.@XG.i 8 C.=X:X:X3X4X=X&X=X3X3X7X0X8X1XI.f.n.e.| R.pXyXpXiX0X1X#X^.^.@X@X%X@X(.} l (.oXC.e.X.{ ..........{ ",
"5.5.5.5.5.5.5.l.L./.~.(.R 8 i p.=X=X,X:X&X&X&X@X=X3X3X4X5X9X8X#XZ.Z.4XsXiX4X0X0X-X XT.Z.).(.+X&X+X!.<.b !.%XS.u.{ ..$.......@...",
"5.5.5.5.5.7.M./.oX(.^.^.:.& k p.@X=X7X9X&X@X(.(.%X&X&X3X3X9X8X8X8X8X8XrXrX=X-X@XR.x.t.U.(.+X@X=X(.R.z.i !.:XoXk...........#.$.$.",
"5.5.5.5.5.m./.OXoX~.!.!.z 5 ; ,.@X=X4X9X1X+XR.Z.(.@X@X@X@X3X9X4X:X4X4X3X7X-X|.R.x.<.a.^.+X%X@X(.S.x.3 s !.6X%XK.a.4...{ { ....%.",
"=.1.5.5.5.N.%X$XoXG.S.R.j - 9 5 |.&X3X5X&X@X^.a.a.^.|.(. X<X3X3X3X1X3X4X@XR.F.T.a.0.Z.+X&X@X|.!.S.s.F l !.eX6X$X/.k...{ { { ....",
"1.5.5.5.5.P.%X+XoX).S.T.I % k 7 Z.+X&X3X3X1X XZ.E b.^.R.R.^.{.|.@X@X|.@XT.z.F.z.} g.(.&X3X&X+XS.S.r.H i +XwXwX6X%XS.<.{ ..O.$.$.",
"5.5.5.5.6.A.oX(.oX[.^.(.I & & 8 I @X@X=X3X4X#X Xs.r.y.y.c.b.x.x.U.|.^.U.T.Z.a.G s Z.+X3X3X|.C.B.i.2 8 } +XrXwX6X>XoXr. .....$.$.",
"5.5.5.5.5.d.A.oX@X+X(.(.Z.& r 2 = K.@X=X7X8X1X1X3XZ.e.i 4 & + + * w G | >.| K q <.R.|.&X+XR.p.s.} y Y s @XwXwX6X6XOXl.u.o.O.$.O.",
"5.5.5.5.7.l./.oX+X+X{.^.Z.i 7 7 - _ @X@X:XrX0X5XuX@Xv.a.] Y D D S q + X O y y l ).^.+X&X|.C.B.>.y F 2 E 3X>X6X>X;XA.M.k.4.$.$...",
"7.7.7.7.5.M./.oX@X|.|.^.T.I O * 9 - S.&X=X7X8XrXuXrX3X^.}.2X5X5X2X<X_.Z.} i y g.@X@X3X&X+XS.B.j o 1 s <.wX6X6X>XOXD.A.C.p.$.$.O.",
"5.5.7.d.9.A.].+X@X@X|.^.R.x.k ; o 5 9 !.+X3X3X8X9X8XqX1X#X1X#X1X#X#X+X|.s.<.Z.|.@X&X@X&X|.s.P 9 7 l 8 R.8X6X>X>XL.D.P./.x.o.$.$.",
"9.d.M.N.J./.'.oX%X X}.^.R.F. .& 7 8   j C.(.+X&X4X8X0X1X|.#X1X1X2X1X@XS.g. X1X@X@X+X+X(.B.j & 9 i 1 Y 4X7X6X:X$XK.K././.s.a.a.e.",
"J.L.L.].OX].].oX%X X|.^.R.Z.Z.:.- 7 o O P p.C.!.&X3X3X1X{. X#X.X#X#X+Xx.s.^.+X(.(.[.S.V 5 - ; - 8 4 p.4X6X6X;XoXL./.'.!.~.!.C.s.",
"OX%XOX;X$X/.].oX@X|.(.^.R.~.).C.k   v & 7 z :.d.S.^.+X@X^.Q.T.R. X|.S.a.z.R.G.C.s.:.6 8 - 6 9 G i I &X:X&X&X&X+X(.(.'.+X@X+XoX/.",
";X;X:X%XoX/.'.'.oX(.^.(.(.!.S.s.>.; & - 0 G I i.C.!.+X@X^.x.z.x.T.x.z.a.s.C.G.s.p.0 O > ; % - O , +X3X:X%X&X:X[.[.oX@X%X@X%X%X'.",
">X;X@XoX(.K./.(./.^.(.^.^.!.S.s.r.G * 5 ; I <.2.k.!.(.@X|.Z.a.a.z.a.r.p.s.s.p.0 P z > 5 6 i j I (.3X4X4X4X3X&X/./.+X@X%X@X%X$XoX",
":X%XoX/.!.K./.(.[.(.(.W.R.R.Z.B.p.} 8 5 ; 9 M.A.s.S.^.[.+X^.z.x.a.t.r.p.i.>.z z > O # @ + 2 >.+X:X3X3X3X:X:X@XR.(.@X@X@X&X&X&X%X",
"&X%X[./.!.K.K.(.+X[.{.{.^.W.Z.Z.x.r.< k 8 O z L.!.k.R.^.^.W.Z.z.t.r.a.<.} 9 & z 0 w 5 6 8 <.(.%X:X3X3X3X3X=X^.R.(.#X@X&X1X&X;X;X",
"&X+X(././.!.A.K./.^.).^.^.R.R.F.Z.z.6 & k -   8.(.S.d.C.F.R.Z.r.a.a.I < G k P # & @ & i a.).+X=X3X3X=X&X%X+XR.R. X&X&X1X1X3X&X&X",
"@X(.~.~./.~.!.!.!.!.Z.Z.T.R.R.T.T.x.l 9 i & 8 w !.~.s.i.s.r.e.K E 8 q c.; & ; - 6 w H t.).[.@X=X3X=X%X+X+XR.Z.^.#X3X3X@X4X4X4X3X",
"+X{.).G.K.!.!.!.~.(.).Z.T.T.R.R.R.x.- * ; 7 i o 2.C.C.2.i ] p + e.6 w > w w 5 ; < H t.C.(.+X=X3X3X&X+XR.a.x.T.#X1X1X@X3X9X3X&X%X",
"+X(.!.S.!.C.G.~.(.(.(.(.).Z.T.T.Z.B.k 8 P k w 9 9 & 9 j & k l I X j z > = o 4 G 0.y.x.).|.&X3X3X%X+X^.<.<.Z.XX.X#X@X1X3X&X&X&X=X",
"^.^.).S.C.S.G.G.G.!.(.(.~.).Z.Z.Z.v.7 @ 9 ; i ; z 5 5 0 k = 5 z k =   7 8 w l | a.x.Z.).|.&X3X3X~.C.C.a.b.^._.XX X3X1X#X X#X&X&X",
").).R.R.S.!.K.A.A.A.G.!.!.).Z.x.Z.B.8 z 0 I 5 G - @ V j   G i   5 7 7 5 k } t.z.x.Z.T.T.XX+X=X3X!.r.z.b.Q.^.^.#X#X.X#X#X#X1X1X&X",
").).R.R.S.C.S.K.C.C.A.!.!.S.Z.Z.x.z.0 & = 9 - j ; j O 8 i 4 y s 4 l R ,.i.i.z.Z.W.T.Z.Z.).@X[.=X@Xa.x.^.Q.W.#X1X.X|. XXX.X#X X|.",
"S.S.S.S.S.s.d.k.S.C.A.!.!.!.A.M.s.r.z 2 j j z - ; o j z v J F F ] e.a.k.B.d.s.R.W.Z.Z.R.C.[.%X(.~.B.!.).^.-X1X.X}.^.}._.}.}.Q.R.",
"C.B.s.s.C.s.d.M.A.G.A.K.S.C.B.d.i.2.I & & 0 - - - 9 R :.} <.<. .r.r.t.u.s.B.B.x.Z.T.T.T.R.S.+XoXS.G.C.R.%X&X#X.X|.}.Q.R.Q.T.R.^."
};
