/* XPM */
static char *c49c6217f8d84c6dbc9d0371be416eb0McgqckHt806kfOH7[] = {
/* columns rows colors chars-per-pixel */
"64 64 209 2 ",
"   c #040502",
".  c #0C0501",
"X  c #0C0A06",
"o  c #080907",
"O  c #120B05",
"+  c #130D0A",
"@  c #180E0B",
"#  c #100703",
"$  c #13120C",
"%  c #1B120D",
"&  c #1C1407",
"*  c #1D1311",
"=  c #181A14",
"-  c #221A0D",
";  c #241C14",
":  c #231E1A",
">  c #2A1F15",
",  c #24211B",
"<  c #2C261A",
"1  c #2D2825",
"2  c #342D23",
"3  c #352A26",
"4  c #3D342E",
"5  c #38322B",
"6  c #3C3631",
"7  c #3D3A34",
"8  c #40372E",
"9  c #413731",
"0  c #443C34",
"q  c #483F36",
"w  c #453D39",
"e  c #493F3A",
"r  c #59333D",
"t  c #454136",
"y  c #4A4136",
"u  c #45413A",
"i  c #4C433C",
"p  c #4D4A3E",
"a  c #51463E",
"s  c #524A3E",
"d  c #4D4641",
"f  c #4D4943",
"g  c #474140",
"h  c #514641",
"j  c #534A44",
"k  c #584E45",
"l  c #554D49",
"z  c #594E4A",
"x  c #5B5146",
"c  c #56514B",
"v  c #5C534C",
"b  c #565247",
"n  c #5D5551",
"m  c #5D5954",
"M  c #5C5B5A",
"N  c #66474C",
"B  c #61564D",
"V  c #62594E",
"C  c #794853",
"Z  c #615652",
"A  c #645B54",
"S  c #695D56",
"D  c #655C5A",
"F  c #695E5A",
"G  c #6A5554",
"H  c #775759",
"J  c #6D4E53",
"K  c #666156",
"L  c #696156",
"P  c #65615D",
"I  c #6C635C",
"U  c #6B6859",
"Y  c #71665D",
"T  c #72695F",
"R  c #605F60",
"E  c #656364",
"W  c #6D6562",
"Q  c #6E6964",
"!  c #6D6B6A",
"~  c #716662",
"^  c #736A64",
"/  c #786E66",
"(  c #746D6A",
")  c #796F6A",
"_  c #797166",
"`  c #77726E",
"'  c #7B726C",
"]  c #746F70",
"[  c #767272",
"{  c #7D7472",
"}  c #7E7A74",
"|  c #7A7778",
" . c #7E7B7A",
".. c #88515F",
"X. c #875B63",
"o. c #995C6D",
"O. c #A65C71",
"+. c #8B6569",
"@. c #80766E",
"#. c #81786F",
"$. c #817674",
"%. c #837B74",
"&. c #897F76",
"*. c #857D7A",
"=. c #887E7C",
"-. c #9B777F",
";. c #A46479",
":. c #86817C",
">. c #8B827D",
",. c #898076",
"<. c #837F80",
"1. c #B77889",
"2. c #AE7587",
"3. c #C55D82",
"4. c #D86B93",
"5. c #D57797",
"6. c #C76883",
"7. c #E57F9F",
"8. c #E577A2",
"9. c #838283",
"0. c #8C8582",
"q. c #8E8986",
"w. c #8D8A8B",
"e. c #918683",
"r. c #938A85",
"t. c #948C8A",
"y. c #988F8B",
"u. c #95918D",
"i. c #9A928E",
"p. c #9A8F93",
"a. c #969393",
"s. c #9A9493",
"d. c #9C9995",
"f. c #9A9798",
"g. c #9D9A9B",
"h. c #97979A",
"j. c #A29C9C",
"k. c #A19996",
"l. c #B38C96",
"z. c #A5A29E",
"x. c #A8A39F",
"c. c #9E9DA1",
"v. c #A39FA2",
"b. c #A4A3A3",
"n. c #AAA5A3",
"m. c #ACA9A5",
"M. c #A6A5AA",
"N. c #ABA5AB",
"B. c #AEAAA9",
"V. c #B2AEAC",
"C. c #B0ABA7",
"Z. c #B3B1AD",
"A. c #BAB2AF",
"S. c #ABAAB1",
"D. c #B3AFB3",
"F. c #B6B4B2",
"G. c #BBB6B3",
"H. c #BBBAB6",
"J. c #BDBDBA",
"K. c #C28396",
"L. c #DD85A5",
"P. c #E28EAB",
"I. c #F086AA",
"U. c #EA90AD",
"Y. c #C1BEBC",
"T. c #BFC0BB",
"R. c #C3C1BE",
"E. c #C8C3BF",
"W. c #BEBDC2",
"Q. c #FF97C3",
"!. c #C1BEC2",
"~. c #C4C2C3",
"^. c #CAC5C4",
"/. c #CDCAC6",
"(. c #C7C4CA",
"). c #C9C5CB",
"_. c #CECCCD",
"`. c #D1CDCC",
"'. c #D1CDC6",
"]. c #D4D1CE",
"[. c #D9D4CE",
"{. c #D0D0C5",
"}. c #CDCAD1",
"|. c #CFCDD0",
" X c #CFCDD1",
".X c #CFCCD3",
"XX c #CDCBD2",
"oX c #D0CED1",
"OX c #D2CDD1",
"+X c #D4CED2",
"@X c #D1CDD2",
"#X c #D6D1D2",
"$X c #D7D1D5",
"%X c #D7D6D7",
"&X c #D5D2D2",
"*X c #D8D3D2",
"=X c #DAD5D2",
"-X c #D9D3D7",
";X c #D9D3D4",
":X c #DAD4D6",
">X c #DAD5D5",
",X c #DAD5D4",
"<X c #D7D7D9",
"1X c #DBD5D9",
"2X c #DAD5DA",
"3X c #DCD6DA",
"4X c #DAD4DB",
"5X c #DBD9DA",
"6X c #D7D8D9",
/* pixels */
"5X5X5X5X%X6X6X6X6X6X2X2X2X3X3X2X4X4X4X4X2X2X2X2X-X-X2X2X$X+XOXOXOX|.|.|.|.|.|.|.|.|.|.|.|.|._._._._.|.}.).).).).(.(.).).).(.^.^.",
"%X2X5X2X5X5X5X2X2X2X2X2X2X-X-X2X2X2X4X4X2X2X2X-X$X$X$X$X$X+XOXOXOX|.|.|.|.|.|.|.|.|.|.|..X|._._._._.|.}.).).).).(.(.).).).(.(.(.",
">X>X>X>X5X5X3X2X2X2X3X3X3X2X2X2X4X4X4X4X2X>X-X-X$X+X+X+X+X+XOX|.|.|.|.|.|.|.|.|.|..X}.|..X.X|.@XOX|.}.).).).).).(.(.).).).).(.(.",
">X>X>X>X5X3X2X2X2X2X2X2X2X2X2X4X4X4X4X4X2X>X-X-X$X+X+X+XOXOX`.|.|.|.|.|.|.|.|.|.|..X}.}.}.}.}.|.@X.X}.).).).).).).).).).).).).).",
"%X%X2X2X3X2X2X2X2X4X-X-X#X#X-X-X2X2X>X>X-X-X$X$X+XOXOXOXOXOXOX|.|.`.].]._._.|.|..X.X}.}.).).}.}.|.|.}.).(.(.(.(.).).).(.(.(.(.).",
"%X%X2X>X>X2X2X2X>X-X>X-X*X#X-X>X>X>X>X>X-X$X+X+XOXOXOX|.OXOXOX|.|.`.]./././._.|.|..X}.}.}.).).}.}.).).).(.(.(.(.(.(.(.(.(.(.(.(.",
"%X%X2X3X3X>X>X>X>X-X*X*X=X=X=X>X-X-X>X>X$X+XOXOXOXOX|.|.|.|.|.|.|.`._././././._.|.@X@X.X}.).).).).).).(.(.(.(.(.(.(.(.(.).).(.(.",
"%X%X>X>X>X>X>X>X=X*X].[.=X=X=X>X>X-X#X#X#X+XOXOXOXOX|.|.|.|.|.|.|.`././././././.|.@X@X|.}.).).).).).).(.(.(.(.(.(.(.(.(.).).(.(.",
"=X=X=X=X=X[.[.=X=X>X=X=X].[.=X,X>X#X].`.`.`.`.OX@X|.|.|.|.|.|.|.|.|._._.`.`.`.'.`.OXOXOX_.(.(.(.(.).).).(.).).(.(.(.(.(.(.(.~.~.",
"=X[.[.[.[.[.=X=X=X>X>X=X].=X=X,X>X#X]._.`.`.`.`.OX|._._._._.|.|.|.|.|.OX`.`.`.'.`.`.`.`.).(.^.^.(.(.).).).(.(.(.~.~.~.~.~.~.~.~.",
"[.[.[.[.[.=X=X=X=X>X>X>X*X*X>X,X>X#X].].].].`.`.`._._._.`.`.`.|.|.OXOXOXOX`.`.`.`.`.`././.^.^.^.).(.(.(.(.(.~.~.~.~.~.~.~.!.!.!.",
"[.[.[.[.=X=X=X=X=X*X>X>X-X-X>X,X>X#X].].].`.`.`.{.`.`.`._._._.|.|.|.|.OXOX`./././.`./././.^.^.^.).^.~.~.~.~.~.~.~.~.!.!.!.!.!.!.",
"=X=X=X=X=X=X>X>X>X-X4X4X4X>X>X>X%X&XOX&XOX`.`.`.`.#X#X#X].].`.&XOXOXOXOX}.).(.(.)././././././.^.^.^.^.^.^.^.R.R.!.!.!.!.!.~.W.W.",
"=X=X=X,X,X,X>X>X>X2X4X4X2X>X>X>X%X&X`.&X#X].#X`./.~.Y.G.F.Z.V.B.B.V.V.!.(.).(.^.^.^./././././.^.^.^.^.^.^.^.R.R.!.!.!.!.!.~.W.W.",
",X,X,X,X,X=X>X>X>X2X2X-X-X>X*X].].].].%X].Y.V.k.0.>.=.%.{ { { { %.%.$.<.a.v.V.Y./.`.`.`.^.^.^.^.^.^.^.^.R.R.R.R.Y.Y.!.!.!.~.W.W.",
"=X=X=X=X=X=X>X>X>X3X2X-X*X].`.].].].].H.i.%.{ ' ' %.' ^ W I ^ ( ( ( ( ( ( ( { >.i.j.V.H.^.`.`././.^.^.^.R.R.R.T.Y.Y.!.!.!.W.W.W.",
"[.[.[.=X=X>X=X=X>X>X>X-X#X].`.{.].R.s.} ' $.$.$.{ ^ D n n n A F F W W W W ^ ( ( ^ ^ ( { 0.i.j.V.Y.^.^.R.R.R.R.Y.!.Y.Y.Y.J.J.H.H.",
"[.[.=X=X=X,X=X=X=X=X>X#X`.`.`.{.Z.:.( ( ' { $.{ ^ n j j l z z z c Z D F L I W ~ ~ ~ ~ ~ ^ ^ ^ { 0.n.Y.R.R.Y.Y.Y.!.Y.Y.R.J.H.H.H.",
"=X=X=X>X>X,X=X=X=X=X>X+X`.*XY.u.` Q ~ ^ ) ) ) ~ Z h e e i h h i h k x B Z A D D F I I L L I ~ ~ W ( >.Z.R.R.R.R.!.!.R.Y.J.J.H.H.",
"=X=X>X>X2X>X=X=X*X=X>X-X/.m.:.( ( ( ^ ) ) ^ ~ I Z h 0 9 e i i i a j k k k x c c v v v v x x B B v n m W u.H.R.J.Y.Y.J.J.J.J.H.H.",
">X>X>X>X>X].H.x.z.m.V.m.0.' ' ) ( ) ) ' ) ~ I I F v j h j j h a a j j j a s s b B +.X.B x j z z v n v c m :.A.J.J.J.Y.Y.Y.J.H.H.",
"=X=X=X=X*XG.t.>.:.%.%.*.} $.$.{ $.$.@._ ^ ~ ~ ^ ^ ^ / ) ) ( ( ~ L L I I I L L A +.U.5.X.j d C X.J z z v m A } m.H.H.Y.Y.Y.J.H.H.",
"[.].[.*X/.d.r.0.:.*.} %.:.=.*.&.%.' ^ Y I I I ~ ~ I W ~ ( ' ' ' ' ' $.*.%._ T Y 1.8.4.5.2.;.P.P...h f j Z I ( :.z.G.G.H.H.H.H.H.",
"=X].`.R.j.q.q.0.0.:.*.%.%.=.%.$.) I L L L I I I I I I L L I ~ ( ( ' ' ' / U U H 1.4.3.5.5.I.Q.L.H j a z F ( { } t.V.G.G.H.H.H.H.",
"=X`.Y.d.=.} { } *.:.>.=.%.%.%.{ ' ' ' ' / ( ( ( I L S L I ~ ( ( ( ( ~ I I L K G o.4.2.N C 6.I.1.G k j z D ^ ' $.>.i.V.G.G.H.H.H.",
"&X`.V.t.=.%.} } } } { ( F W ' $.%.=.&.,.,.&.%._ I I I ~ ' ' ' ' ^ I D B v Z A S 2.K.l.r O.7.O.+.T k j j c Y ' $.*.>.d.Z.G.H.H.H.",
"]./.V.u.0.>.=.:.} I d 6 1 1 3 e Z { &.&.,.&.$.' Y T ( ' %.#.' I x 0 2 2 2 9 i j h a G N 2.1.-.z a 0 e e i S ' $.*.>.u.V.H.H.H.H.",
"].`.V.u.>.=.>.( e : * * % @ @ @ % y ' $.&.&.#.' ' _ ' ' ' / I y < & - - ; > 2 i d d w u 9 h G p t 8 9 9 0 k / *.%.,.u.V.H.H.G.G.",
"].`.C.t.=.&.A ; O % @ * * O + @ O : c ~ ' @.' _ _ ' _ / T I a > O $ $ + + O @ , 5 g u 0 w q e w 9 8 7 6 4 9 v ( $.:.u.Z.Y.G.G.G.",
"`.^.j.=.=.^ % . % @ h y.W : X X X $ 0 I / ' ' _ _ _ / I L v 5 ; ; + o   o       X 1 w 9 9 9 q w w 9 9 4 4 9 j D ( } u.F.Y.G.G.G.",
"`.G.t.%.$.e # O # # 9 F 6 + X o . : 7 Z I ( / ^ T T Y L A a 2 0 Q 1   o o o       X 4 9 9 9 q y h i e 9 4 6 i n P ` s.G.G.G.G.G.",
"/.B.r.*.$.6 . O . . .       o $ 5 u i D I ~ I I I I L L V y 5 4 7 =     o o         : 9 9 w q i k Z n f 7 4 d A I { n.G.G.G.G.G.",
"R.z.0.=.=.W % . # . X X       = l l c I I I L L L L L A V j 8 < X   o o o         . : e y y w y j A I P v c m I ( >.n.G.G.G.G.G.",
"Y.n.0.=.$.%.z @ . O . . X X + , 7 f A L L L F D D A V A A Z j 6 , X           .   % 9 d h e 9 0 i D ( ( ^ W L W { t.m.G.G.G.A.A.",
"H.m.t.>.$.{ ) k 1 ; % * ; 2 u l v m A S L A Z V B v v v v v v v c 7 : $ o o o X * 4 e i e 4 4 w v I ~ ( ( ( ~ ~ [ t.m.Z.G.G.G.F.",
"G.m.t.0.*.' ' / Y D x k k v L I P A V V B v x k j a a a k v v v m n l d u 7 6 5 6 i i e 9 4 4 i L ~ ' ' ' ( ( ^ { 0.n.C.V.A.A.F.",
"V.j.q.>.=.$.#._ T I L L I I K D Z x x x s a y y q q q q y k v v v v c l l l f d d i i y 0 4 9 j I ( { $.{ ' ' ) { *.s.b.B.V.D.D.",
"m.d.0.=.=.=.$._ ^ Y I I I I L B x x x x s y q q 0 9 9 9 e j z c c c k h d d i i i y i i i y i v W ( { { { ' ) ( ( [ <.a.b.M.S.D.",
"m.d.0.=.=.=.$.' / T T T T I I S B k x x a q 0 9 8 9 9 9 y z z c v n v k h i i y e w y i a j h v L ( ` { { { ( ^ Q W [ w.h.b.M.S.",
"n.s.0.=.=.*.$.' ' / ~ T T T T T I A v v x y 8 8 9 4 9 9 d z v D F D A v x k j i q w w q i a j c A ( }  .*.} ( W W W [ 9.h.c.M.S.",
"n.s.0.=.=.*.$.$.$.$.' _ _ / ~ T T T I L A B j w 4 4 9 0 j Z F I I D Z v x x k i y w w w y i j v A ( } *.9. .! W E E [ <.w.g.v.M.",
"n.s.0.0.:.=.=.=.=.=.*.*.,.&.%.#.' ' ' T S F L Z z j j j v F F ~ I L D V x x k i t 0 t t y i k v A ( } *.<.[ E E E E !  .0.a.j.b.",
"B.g.q.>.>.=.>.>.0.0.>.e.e.r.r.r.r.e.>.' D D D I I F v h v ~ ~ ~ ~ I L A V k a y w t u i i j z A W [  . .| ! D D R E ! | 9.a.g.j.",
"H.n.u.0.0.0.0.e.r.t.r.r.t.y.i.i.i.i.i.,.I D D F I F h e j ~ ~ ~ Y I L A v j y 0 i i f j k z n F ^ [ | | ! R M M M E ! <.w.a.g.j.",
"R.Z.j.t.0.0.0.r.t.t.t.y.i.i.i.s.s.i.t.r.' F D D D z e e h D F F S L D Z c k j j j j c k z v D W ( ] [ ( E M M M M E [ 9.a.f.g.b.",
"R.Y.G.j.t.w.0.w.t.t.t.i.i.s.s.d.s.u.t.t.=.) ~ F v h h h z Z Z A D L D D Z Z Z Z Z Z n n Z D W ! ] ] ] ! P M M M E !  .w.f.c.v.N.",
"^.R.Y.F.z.t.w.t.t.t.u.u.i.s.s.d.s.i.t.t.>.*.$.~ A Z Z D S D D I ^ ^ ~ ~ I I I I I I I I ~ ^ ( ( ] ( ! P M M M D ! | w.a.g.b.N.N.",
"^.^.R.Y.F.B.j.s.s.a.u.u.u.a.s.d.s.s.t.t.0.&.$.) ^ ~ W ~ W W ( ' $.%.%.$.' ( ^ Q ~ ^ ^ ( ' ' [ ` ( Q P M M m M E | 9.a.f.j.b.N.N.",
"E.~.E.R.Y.G.F.C.j.f.s.a.a.s.d.d.s.s.i.t.r.>.&.%.' ' { $.%.%.>.>.>.>.>.,.*.} ` ' ' ' ' ' ' ' ( ( Q P A m m m M ! 9.w.f.f.v.M.N.N.",
"R.R.R.R.~.Y.Y.G.V.n.j.f.s.s.u.i.i.i.u.t.r.r.e.e.e.e.e.e.0.0.>.,.,.,.,.,.,.*.$.' ' { ' ^ ~ W W W F D A n n m M ! 9.w.g.g.v.N.N.N.",
"R.R.R.R.Y.Y.Y.J.F.B.j.g.s.t.>.:.>.0.:.*.=.e.t.r.t.r.r.r.e.>.%.' ' &.,.>.,.*.%.$.' ' ( ~ I I F A Z n n n n m M ! 9.w.g.g.v.N.N.N.",
"R.R.R.!.!.Y.Y.Y.F.B.j.d.q.=.` W I P m v Z ^ %.&.=.>.>.>.>.' L D I Y ' @.$.$.@.' ' ) ^ ~ I F Z c c c c v n m P ! <.w.f.g.v.N.N.N.",
"~.~.!.!.!.Y.Y.Y.G.C.b.d.:.{ Q A c u 9 9 w i z v D I ^ ^ Z j i i j k k v S ~ ^ ~ ~ ^ ^ ^ I D c j k k k z l n P ! 9.w.f.g.v.n.N.N.",
"R.~.~.!.!.!.Y.Y.F.B.m.g.q.} W n z e w w e w e y i h j j i y w q y i i a k A A D L I I I D v k k j j k k c n P Q  .t.s.g.g.b.b.N.",
"~.~.~.~.!.~.Y.J.F.B.B.z.u.:.( D z f i g e e y y y i i i i e w q q q y y i j k x c v Z v c k j j j j j j z n I ! } q.s.f.g.b.b.N.",
"!.!.Y.R.R.Y.Y.J.H.F.Z.n.d.t.} Q n l l f d h h i i i d i i y w q q q w w w y w y q y y y i j j j j j j k z n P ( } e.s.s.g.b.b.N.",
"W.J.J.J.J.J.J.J.H.F.Z.n.g.s.0.[ P m c c j j j j j j h d d d i y y q w w w w w 9 4 4 8 w y i h h j j j j c v P ` %.e.p.s.g.b.b.M.",
"R.J.J.J.J.J.J.J.H.F.Z.m.z.d.w.*.( D n n z j j j j j j h h d i i i y e w w w w 7 6 6 9 u i j h h j j j k v A W { 0.e.s.s.j.v.b.b.",
"R.T.J.J.J.J.J.J.H.F.Z.B.n.g.a.0.} ( W D n z j j j j j h h j h d d i y q w w u 0 7 9 w i f j j j j j z c Z F ( %.0.t.s.a.d.g.g.v.",
"J.J.J.J.J.J.J.J.H.H.F.V.m.z.g.u.0.%.( W D v z j j j h i h h h j j i y y w y u u u y i f j j j j j z v v A Q { :.0.t.a.a.f.f.g.g.",
"J.J.J.J.J.J.J.J.H.H.H.F.B.B.n.j.a.q.=.) ^ F v z j j j h j j j a a i y w w y i d f f j j j k j j k v n K I ( *.0.0.u.f.d.f.f.g.g.",
"Y.Y.Y.J.H.H.H.H.H.H.H.F.F.V.B.b.g.s.t.=.{ ^ D v z l l j h h h d d i i y y y i d f f f j j j z z v v F ^ ' } :.0.t.a.f.g.g.g.j.j.",
"Y.Y.Y.J.H.H.H.H.H.H.H.F.F.V.C.m.z.g.f.t.0.{ ^ F n z l l j j h d i d d i i i i f f f f f j j z v v I ' *.0.q.w.t.a.g.j.j.j.j.v.v.",
"!.Y.Y.J.H.H.H.H.H.H.H.F.F.V.V.B.z.j.j.s.t.0.*.{ ^ F Z v j j h j d f d d h d d f f f d f j j c v F { >.0.t.t.u.s.g.j.j.v.v.v.v.v."
};
