/* XPM */
static char *_2ecb98fcd79481bbd84325457303fbclbBhznlth5vbgxTl[] = {
/* columns rows colors chars-per-pixel */
"64 64 149 2 ",
"   c #060707",
".  c #070807",
"X  c #0E0C02",
"o  c #01010F",
"O  c #0A030E",
"+  c #120D01",
"@  c #1B0F00",
"#  c #12040C",
"$  c #141101",
"%  c #1D1401",
"&  c #030610",
"*  c #070D10",
"=  c #3C0101",
"-  c #2C180B",
";  c #162E0F",
":  c #1B2E0E",
">  c #17310F",
",  c #1B330F",
"<  c #173310",
"1  c #183310",
"2  c #1D3E14",
"3  c #202F0E",
"4  c #26300D",
"5  c #430201",
"6  c #4D0201",
"7  c #460A03",
"8  c #4B0802",
"9  c #540100",
"0  c #580400",
"q  c #570801",
"w  c #5D0B01",
"e  c #620C01",
"r  c #6E1200",
"t  c #662300",
"y  c #6F2600",
"u  c #6D2A01",
"i  c #702700",
"p  c #7F2601",
"a  c #742B00",
"s  c #7E2C02",
"d  c #7B3304",
"f  c #1F4215",
"g  c #214616",
"h  c #234A17",
"j  c #2E4B16",
"k  c #214518",
"l  c #244C18",
"z  c #334D17",
"x  c #3A4A15",
"c  c #245019",
"v  c #2D5018",
"b  c #2C5D1D",
"n  c #325E1D",
"m  c #2D611E",
"M  c #346D22",
"N  c #367324",
"B  c #3A7B26",
"V  c #3C7F28",
"C  c #852500",
"Z  c #882600",
"A  c #862800",
"S  c #8C2C00",
"D  c #912F00",
"F  c #823103",
"G  c #883001",
"H  c #963200",
"J  c #933702",
"K  c #973601",
"L  c #953501",
"P  c #933200",
"I  c #993500",
"U  c #943A02",
"Y  c #993901",
"T  c #9A3901",
"R  c #9B3901",
"E  c #9A3A01",
"W  c #9C3A01",
"Q  c #9D3A01",
"!  c #9C3B01",
"~  c #9D3901",
"^  c #9B3901",
"/  c #A23D00",
"(  c #A53C00",
")  c #A53E00",
"_  c #A83F00",
"`  c #A74000",
"'  c #AB4301",
"]  c #B14701",
"[  c #BA4C00",
"{  c #C04E00",
"}  c #C45100",
"|  c #C95400",
" . c #D65B00",
".. c #D95D00",
"X. c #DD6000",
"o. c #E56500",
"O. c #EB6A02",
"+. c #F26D01",
"@. c #F77002",
"#. c #FA7304",
"$. c #EC7717",
"%. c #EF7914",
"&. c #F37D16",
"*. c #F57E18",
"=. c #3C8028",
"-. c #3D8128",
";. c #3D8329",
":. c #3D8229",
">. c #3E8329",
",. c #3F862A",
"<. c #3F882A",
"1. c #408B2B",
"2. c #418B2C",
"3. c #428C2C",
"4. c #438E2D",
"5. c #438F2D",
"6. c #428F2D",
"7. c #44912D",
"8. c #44912E",
"9. c #44922E",
"0. c #44932E",
"q. c #45932E",
"w. c #45942E",
"e. c #45952E",
"r. c #51AE36",
"t. c #51AF37",
"y. c #52AF37",
"u. c #52B137",
"i. c #53B137",
"p. c #53B238",
"a. c #53B338",
"s. c #54B439",
"d. c #55B739",
"f. c #57B93A",
"g. c #57BA3A",
"h. c #57BB3A",
"j. c #58BA3A",
"k. c #59BD3B",
"l. c #58BC3B",
"z. c #59BE3B",
"x. c #59BF3B",
"c. c #59BF3C",
"v. c #5ABF3C",
"b. c #59C03C",
"n. c #5AC03C",
"m. c #5AC13C",
"M. c #5BC23D",
"N. c #FB8217",
"B. c #FE8518",
/* pixels */
"u.u.m.v.p.z.u.u.u.u.v.v.p.z.u.u.u.u.v.v.p.z.u.u.u.u.v.v.p.z.u.u.u.u.v.v.p.z.u.u.u.u.v.v.p.z.u.u.u.u.v.v.p.z.u.u.u.u.v.v.p.z.u.u.",
"t.t.m.v.p.z.t.t.t.t.v.v.p.z.t.t.t.t.v.v.p.z.t.t.t.t.v.v.p.z.t.t.t.t.v.v.p.z.t.t.t.t.v.v.p.z.t.t.t.t.v.v.p.z.t.t.t.t.v.v.p.z.t.t.",
"7.w.z.m.m.z.w.7.7.w.z.v.p.z.w.7.7.w.z.m.m.z.w.7.7.w.z.v.p.z.w.7.7.w.z.m.m.z.w.7.7.w.z.v.p.z.w.7.7.w.z.m.m.z.w.7.7.w.z.v.p.z.w.7.",
"5.7.z.m.m.z.w.5.5.7.z.m.m.z.7.2.5.7.z.m.m.z.w.5.5.7.z.m.m.z.7.2.5.7.z.m.m.z.w.5.5.7.z.m.m.z.7.2.5.7.z.m.m.z.w.5.5.7.z.m.m.z.7.2.",
"5.7.j.m.m.g.5.5.5.7.z.m.m.v.5.l 1.7.g.m.m.g.5.5.5.7.z.m.m.v.5.l 1.7.g.m.m.g.5.5.5.7.z.m.m.v.5.l 1.7.g.m.m.g.5.5.5.7.z.m.m.v.5.h ",
"B :.,.z.v.:.h B B :.g.m.m.z.:.g B :.,.z.v.:.h B B :.g.m.m.z.:.g B :.,.z.v.:.h B B :.g.m.m.z.:.g B :.,.z.v.:.h B B :.g.m.m.z.:.f ",
"g B :.j.m.V g B l B <.z.m.g.B f g B :.j.m.V g B l B <.z.m.g.B f g B :.j.m.V g B l B <.z.m.g.B f g B :.j.m.V g B l B <.z.m.g.B f ",
"g B :.,.d.V g N g B :.g.m.:.g 2 g B :.,.d.V g N g B :.g.m.:.g 2 g B :.,.d.V g N g B :.g.m.:.g 2 g B :.,.d.V g N g B :.g.m.:.g f ",
"f M N M N M f f f M M B d.N 2 2 f M N M N M f f f M M B d.N 2 2 f M N M N M f f f M M B d.N 2 2 f M N M N M f f f M M B d.N 2 2 ",
"> 1 b m m b 1 ; > 1 b m m b 1 > > 1 b m m b 1 ; > 1 b m m b 1 > > 1 b m m b 1 ; > 1 b m m b 1 > > 1 b m m b 1 ; > 1 b m m b 1 > ",
"; < b m m b < ; ; < b m m b < ; ; < b m m b < ; ; < b m m b < ; ; < b m m b < ; ; < b m m b < ; ; < b m m b < ; ; < b m m b < ; ",
"; < b m m b < > ; < b m m b < ; ; < b m m b < > ; < b m m b < ; ; < b m m b < > ; < b m m b < ; ; < b m m b < > ; < b m m b < ; ",
"; , b n m b < ; ; < b m m b < ; ; , b n m b < ; ; < b m m b < ; ; , b n m b < ; ; < b m m b < ; ; , b n m b < ; ; < b m m b < ; ",
": d z d v c : 7 : < c l c l > > : d z d v c : 7 : < c l c l > > : d z d v c : 7 : < c l c l > > : d z d v c : 7 : < c l c l < ; ",
"4 F x F z c ; 6 $ > g * k * ; > 4 F x F z c ; 6 $ > g * k * ; > 4 F x F z c ; 6 $ > g * k * ; > 4 F x F z c ; 6 $ > g * k * ; > ",
"! S G S s j 3 6 + ; & & k & ; : U D G S s j 3 6 + ; & & k & ; : U D G S s j 3 6 + ; & & k & ; : U D G S s j 3 6 + ; & & k & ; ; ",
"( S S Z Z A p 6 + o o o o o o O ! D S Z Z A p 6 + o o o o o o O ! D S Z Z A p 6 + o o o o o o O ! D S Z Z A p 6 + o o o o o o o ",
"/ S A A A S Z 6 + o o o o o o O E S Z A A S Z 6 + o o o o o o O E S Z A A S Z 6 + o o o o o o O E S Z A A S Z 6 + o o o o o o o ",
"! Z C Z Z C r 6 X o o o o o o O K Z C Z Z C r 6 X o o o o o o O K Z C Z Z C r 6 X o o o o o o O K Z C Z Z C r 6 X o o o o o o o ",
"w 9 6 6 6 6 6 6 O O O O O O O O q 9 6 6 6 6 6 6 O O O O O O O O q 9 6 6 6 6 6 6 O O O O O O O O q 9 6 6 6 6 6 6 O O O O O O O O ",
"+ + + + + + X O J ! E E E E K q + + + + + + X O J ! E E E E K q + + + + + + X O J ! E E E E K q + + + + + + X O J ! E E E E K 0 ",
"X . .   o o o O ! H P P D S Z 9 + . .   o o o O ! H P P D S Z 9 + . .   o o o O ! H P P D S Z 9 + . .   o o o O ! H P P D S Z 9 ",
"X .   o o o o O E P S S S Z C 6 + .   o o o o O E P S S S Z C 6 + .   o o o o O E P S S S Z C 6 + .   o o o o O E P S S S Z C 9 ",
"X   o o o o o O E P S S Z A Z 6 +   o o o o o O E P S S Z A Z 6 +   o o o o o O E P S S Z A Z 6 +   o o o o o O E P S S Z A C 9 ",
"X o o o o o o O E D S Z Z A Z 6 + o o o o o o O E D S Z Z A Z 6 + o o o o o o O E D S Z Z A Z 6 + o o o o o o O E D S Z Z A C 9 ",
"X o o o o o o O E S Z A A S C 6 + o o o o o o O E S Z A A S C 6 + o o o o o o O E S Z A A S C 6 + o o o o o o O E S Z A A S C 9 ",
"X o o o o o o O K Z C Z Z C r 6 X o o o o o o O K Z C Z Z C r 6 X o o o o o o O K Z C Z Z C r 6 X o o o o o o O K Z C Z Z C r 9 ",
"O O O O O O O O q 9 6 6 6 q 6 5 O O O O O O O O q 9 6 6 6 q 6 5 O O O O O O O O q 9 6 6 6 q 6 5 O O O O O O O O q 9 6 6 6 q 6 6 ",
"E ! E E E E K w + + + X @ t + O J / E E E E K w + + + X @ t + O J / E E E E K w + + + X @ t + O J / E E E E K w + + + X @ t + O ",
"` } H H D S D [ % o o O 6 9 o O / | H H D S D [ % o o O 6 9 o O / | H H D S D [ % o o O 6 9 o O / | H H D S D [ % o o O 6 9 o o ",
"_ } P { P A } | u o O 6 0 9 O O Q } P { P A { | u o O 6 0 9 O O Q } P { P A } | u o O 6 0 9 O O Q } P { P A } | u o O 6 0 9 O o ",
"| | I | } D | | a O 6 9 9 9 6 # } | I | } D | | a O 6 0 9 9 6 # } | I | } D | | a O 6 0 9 9 6 # } | I | } D | | a O 6 0 9 9 6 O ",
"N.+.O.o.o.o. .( a 9 9 9 9 9 9 8 &.+.O.o.o.o. .( a 9 9 9 9 9 9 8 &.+.O.o.o.o. .( a 9 9 9 9 9 9 8 &.+.O.o.o.o. .( a 9 9 9 9 9 9 = ",
"B.O.o.o.o.X. .( a 0 9 9 9 9 6 8 &.O.o.o.o.X. .( a 0 9 9 9 9 6 8 &.O.o.o.o.X. .( a 0 9 9 9 9 6 8 &.O.o.o.o.X. .( a 0 9 9 9 9 9 5 ",
"N.o.o..... .| ( y 9 9 9 9 6 - 7 &.o.o..... .| ( y 9 9 9 9 6 - 7 &.o.o..... .| ( y 9 9 9 9 6 - 7 &.o.o..... .| ( y 9 9 9 9 6 - = ",
"] ( ( ( ( ( ( ! e 8 8 8 8 8 7 8 ` ( ( ( ( ( ( ! e 8 8 8 8 8 7 8 ` ( ( ( ( ( ( ! e 8 8 8 8 8 7 8 ` ( ( ( ( ( ( ! e 8 8 8 8 8 8 7 ",
"a a a a a a i e $.&.&.&.&.&.&.` a a a a a a i e $.&.&.&.&.&.&.` a a a a a a i e $.&.&.&.&.&.&.` a a a a a a i e $.&.&.&.&.&.%.' ",
"a a a y 0 9 9 8 &.#.+.@.@.O.o.` a a a y 0 9 9 8 &.#.+.@.@.O.o.` a a a y 0 9 9 8 &.#.+.@.@.O.o.` a a a y 0 9 9 8 &.#.+.@.@.O.o.` ",
"a a i 0 9 9 9 8 &.+.+.+.+.o.o.( a a i 0 9 9 9 8 &.+.+.+.+.o.o.( a a i 0 9 9 9 8 &.+.+.+.+.o.o.( a a i 0 9 9 9 8 &.+.+.+.+.o.X.( ",
"a i 0 9 9 9 9 8 &.@.+.+.o.o...( a i 0 9 9 9 9 8 &.@.+.+.o.o...( a i 0 9 9 9 9 8 &.@.+.+.o.o...( a i 0 9 9 9 9 8 &.@.+.+.o.o. .( ",
"a 0 9 9 9 9 9 8 &.@.+.o.o.o...( a q 9 9 9 9 9 8 &.@.+.o.o.o...( a q 9 9 9 9 9 8 &.@.+.o.o.o...( a q 9 9 9 9 9 8 &.@.+.o.o.o. .( ",
"a 0 9 9 9 9 6 8 &.O.o.o.o... .( a 9 9 9 9 9 6 8 &.O.o.o.o... .( a 9 9 9 9 9 6 8 &.O.o.o.o... .( a 9 9 9 9 9 6 8 &.O.o.o.o... .( ",
"y 9 9 9 9 6 - 7 &.o.o..... .| ( y 9 9 9 9 6 - 7 &.o.o..... .| ( y 9 9 9 9 6 - 7 &.o.o..... .| ( y 9 9 9 9 6 - 7 &.o.o..... .| ( ",
"w 8 8 8 8 8 7 8 ` ( ( ( ( ( ( ! e 8 8 8 8 8 7 8 ` ( ( ( ( ( ( ! e 8 8 8 8 8 7 8 ` ( ( ( ( ( ( ! e 8 8 8 8 8 7 8 ` ( ( ( ( ( ( / ",
"*.&.&.&.&.&.&.` a a a a a a i e $.&.&.&.&.&.&.` a a a a a a i e $.&.&.&.&.&.&.` a a a a a a i e $.&.&.&.&.&.&.` a a a a a a i 0 ",
"B.#.+.@.@.O.o.` a a a y 0 9 9 8 &.#.+.@.@.O.o.` a a a y 0 9 9 8 &.#.+.@.@.O.o.` a a a y 0 9 9 8 &.#.+.@.@.O.o.` a a a y 0 9 9 5 ",
"B.+.+.+.+.o.o.( a a i 0 9 9 9 8 &.+.+.+.+.o.o.( a a i 0 9 9 9 8 &.+.+.+.+.o.o.( a a i 0 9 9 9 8 &.+.+.+.+.o.o.( a a i 0 9 9 9 5 ",
"B.+.+.+.o.o...( a i 0 9 9 9 9 8 &.@.+.+.o.o...( a i 0 9 9 9 9 8 &.@.+.+.o.o...( a i 0 9 9 9 9 8 &.@.+.+.o.o...( a i 0 9 9 9 9 5 ",
"B.+.+.o.o.o...( a q 9 9 9 9 9 8 &.@.+.o.o.o...( a q 9 9 9 9 9 8 &.@.+.o.o.o...( a q 9 9 9 9 9 8 &.@.+.o.o.o...( a q 9 9 9 9 9 5 ",
"B.O.o.o.o... .( a 9 9 9 9 9 6 8 &.O.o.o.o... .( a 9 9 9 9 9 6 8 &.O.o.o.o... .( a 9 9 9 9 9 6 8 &.O.o.o.o... .( a 9 9 9 9 9 9 5 ",
"N.o.o..... .| ( y 9 9 9 9 6 - 7 &.o.o..... .| ( y 9 9 9 9 6 - 7 &.o.o..... .| ( y 9 9 9 9 6 - 7 &.o.o..... .| ( y 9 9 9 9 6 - = ",
"] ( ( ( ( ( ( ! e 8 8 8 8 8 7 8 ` ( ( ( ( ( ( ! e 8 8 8 8 8 7 8 ` ( ( ( ( ( ( ! e 8 8 8 8 8 7 8 ` ( ( ( ( ( ( ! e 8 8 8 8 8 8 7 ",
"a a a a a a i e $.&.&.&.&.&.&.` a a a a a a i e $.&.&.&.&.&.&.` a a a a a a i e $.&.&.&.&.&.&.` a a a a a a i e $.&.&.&.&.&.%.' ",
"a a a y 0 9 9 8 &.#.+.@.@.O.o.` a a a y 0 9 9 8 &.#.+.@.@.O.o.` a a a y 0 9 9 8 &.#.+.@.@.O.o.` a a a y 0 9 9 8 &.#.+.@.@.O.o.` ",
"a a i 0 9 9 9 8 &.+.+.+.+.o.o.( a a i 0 9 9 9 8 &.+.+.+.+.o.o.( a a i 0 9 9 9 8 &.+.+.+.+.o.o.( a a i 0 9 9 9 8 &.+.+.+.+.o.X.( ",
"a i 0 9 9 9 9 8 &.@.+.+.o.o...( a i 0 9 9 9 9 8 &.@.+.+.o.o...( a i 0 9 9 9 9 8 &.@.+.+.o.o...( a i 0 9 9 9 9 8 &.@.+.+.o.o. .( ",
"a 0 9 9 9 9 9 8 &.@.+.o.o.o...( a q 9 9 9 9 9 8 &.@.+.o.o.o...( a q 9 9 9 9 9 8 &.@.+.o.o.o...( a q 9 9 9 9 9 8 &.@.+.o.o.o. .( ",
"a 0 9 9 9 9 6 8 &.O.o.o.o... .( a 9 9 9 9 9 6 8 &.O.o.o.o... .( a 9 9 9 9 9 6 8 &.O.o.o.o... .( a 9 9 9 9 9 6 8 &.O.o.o.o... .( ",
"y 9 9 9 9 6 - 7 &.o.o..... .| ( y 9 9 9 9 6 - 7 &.o.o..... .| ( y 9 9 9 9 6 - 7 &.o.o..... .| ( y 9 9 9 9 6 - 7 &.o.o..... .| ( ",
"w 8 8 8 8 8 7 8 ` ( ( ( ( ( ( ! e 8 8 8 8 8 7 8 ` ( ( ( ( ( ( ! e 8 8 8 8 8 7 8 ` ( ( ( ( ( ( ! e 8 8 8 8 8 7 8 ` ( ( ( ( ( ( / ",
"*.&.&.&.&.&.&.` a a a a a a i e $.&.&.&.&.&.&.` a a a a a a i e $.&.&.&.&.&.&.` a a a a a a i e $.&.&.&.&.&.&.` a a a a a a i 0 ",
"B.#.+.@.@.O.o.` a a a y 0 9 9 8 &.#.+.@.@.O.o.` a a a y 0 9 9 8 &.#.+.@.@.O.o.` a a a y 0 9 9 8 &.#.+.@.@.O.o.` a a a y 0 9 9 5 ",
"B.+.+.+.+.o.o.( a a i 0 9 9 9 8 &.+.+.+.+.o.o.( a a i 0 9 9 9 8 &.+.+.+.+.o.o.( a a i 0 9 9 9 8 &.+.+.+.+.o.o.( a a i 0 9 9 9 5 ",
"B.+.+.+.o.o...( a a 0 9 9 9 9 8 &.@.+.+.o.o...( a a 0 9 9 9 9 8 &.@.+.+.o.o...( a a 0 9 9 9 9 8 &.@.+.+.o.o...( a a 0 9 9 9 9 5 "
};
