/* XPM */
static char *_46fde704a914f0fb0af15640008a4f2ERv2vjN9kwmqk3ue[] = {
/* columns rows colors chars-per-pixel */
"64 64 198 2 ",
"   c #2B391C",
".  c #313C24",
"X  c #383D2B",
"o  c #2D4524",
"O  c #344325",
"+  c #384427",
"@  c #364925",
"#  c #3A4C26",
"$  c #364429",
"%  c #3B452C",
"&  c #354B2A",
"*  c #3C4C2C",
"=  c #365226",
"-  c #395826",
";  c #37562C",
":  c #3D542C",
">  c #37582B",
",  c #3C5B2C",
"<  c #3E4530",
"1  c #3C4C32",
"2  c #3D5333",
"3  c #3E5E32",
"4  c #3F5339",
"5  c #3E632F",
"6  c #3F6134",
"7  c #404D2E",
"8  c #455525",
"9  c #445827",
"0  c #43542E",
"q  c #4E542B",
"w  c #435B2D",
"e  c #4B5B2D",
"r  c #545D2B",
"t  c #424734",
"y  c #424C34",
"u  c #484F37",
"i  c #45463C",
"p  c #454D3A",
"a  c #4B4C3C",
"s  c #504F3E",
"d  c #445334",
"f  c #4A5534",
"g  c #455A33",
"h  c #4B5C34",
"j  c #45533A",
"k  c #4B543C",
"l  c #465B3C",
"z  c #4C5B3B",
"x  c #525D34",
"c  c #50543D",
"v  c #525C3C",
"b  c #46612D",
"n  c #4B642D",
"m  c #446234",
"M  c #4B6235",
"N  c #466B33",
"B  c #4E6933",
"V  c #45633A",
"C  c #4C643B",
"Z  c #476839",
"A  c #4C693D",
"S  c #526336",
"D  c #5C6734",
"F  c #506A37",
"G  c #596936",
"H  c #53633C",
"J  c #59643D",
"K  c #546A3D",
"L  c #5A6B3D",
"P  c #59723C",
"I  c #626C3F",
"U  c #474B42",
"Y  c #4C4D41",
"T  c #534E45",
"R  c #4D5441",
"E  c #475840",
"W  c #4D5A43",
"Q  c #4E574A",
"!  c #4F5E48",
"~  c #525444",
"^  c #5B5246",
"/  c #545C43",
"(  c #595D45",
")  c #555549",
"_  c #5C564B",
"`  c #555B4A",
"'  c #5A5C4B",
"]  c #5B5E50",
"[  c #63564B",
"{  c #645E4E",
"}  c #625E53",
"|  c #695E53",
" . c #655F58",
".. c #4D6341",
"X. c #4C6942",
"o. c #546343",
"O. c #5A6445",
"+. c #546A43",
"@. c #5B6B44",
"#. c #55624A",
"$. c #5C634C",
"%. c #576C4A",
"&. c #5C6B4A",
"*. c #567540",
"=. c #5B7344",
"-. c #5D7A44",
";. c #5C734C",
":. c #5F7A4A",
">. c #536751",
",. c #5D6452",
"<. c #576951",
"1. c #5E6A54",
"2. c #5F6758",
"3. c #5F6B5A",
"4. c #5E7551",
"5. c #5F7058",
"6. c #646744",
"7. c #626C44",
"8. c #60644D",
"9. c #626B4D",
"0. c #6A6C4E",
"q. c #647047",
"w. c #687247",
"e. c #63734C",
"r. c #6A734D",
"t. c #667A4D",
"y. c #6E7B4D",
"u. c #636453",
"i. c #696655",
"p. c #646B54",
"a. c #696B56",
"s. c #646758",
"d. c #6A675A",
"f. c #646C5B",
"g. c #6C6C5B",
"h. c #716E5D",
"j. c #657353",
"k. c #6A7354",
"l. c #667A54",
"z. c #6C7B54",
"x. c #657359",
"c. c #6D725C",
"v. c #637958",
"b. c #6C795B",
"n. c #727356",
"m. c #737B56",
"M. c #72735E",
"N. c #727A5D",
"B. c #7A7A5E",
"V. c #656F60",
"C. c #6A6E61",
"Z. c #726D61",
"A. c #677162",
"S. c #6D7462",
"D. c #6E7B62",
"F. c #6D7668",
"G. c #6D7869",
"H. c #747563",
"J. c #797565",
"K. c #737963",
"L. c #757A65",
"P. c #757A66",
"I. c #787865",
"U. c #7A7B65",
"Y. c #797A66",
"T. c #7C7A67",
"R. c #767569",
"E. c #767768",
"W. c #7A766B",
"Q. c #767A68",
"!. c #767B6A",
"~. c #777C6B",
"^. c #7A7B69",
"/. c #797C69",
"(. c #7A7C6A",
"). c #7D7D6B",
"_. c #797D6D",
"`. c #7D7F6D",
"'. c #777E70",
"]. c #7B7E71",
"[. c #817F66",
"{. c #807F68",
"}. c #807E77",
"|. c #70815D",
" X c #778063",
".X c #7D8065",
"XX c #758068",
"oX c #7B806E",
"OX c #7C806C",
"+X c #7D806D",
"@X c #7B8071",
"#X c #7D8172",
"$X c #7C8173",
"%X c #7F8573",
"&X c #808067",
"*X c #80816B",
"=X c #818372",
"-X c #848473",
/* pixels */
"d.) ' _._.oXOX`.Q.b.j.C k d.K.L.K.H.K.E.H.H.R k H h o.C +.1.A A +.$.H.oX#X#X#X#X#XI.Q.H.` I.I.(._.(.(.).L.p.R . % k ` u.u.u.u.d.",
"H.' ` Q._.L.OX(.S.j.@.C k i.M.M.K.K.E.K.W.u.d * z o.O.g +.@.+.C M $.g.I.OX=X#X`.(.).M.&.` H.I.I.^.I.(.(._.L.k X % f ` i.8.8.d.d.",
"d.) $.L.L.L.~.L.p.b.O.O.y d.g.g.h.H.H.H.Z./ k * g k z z H C M C C ` c.^.=X-X`.^.`.N.t.K / M.I.I.I.I.I.(.^.c.k X d f f ' ) ' i.u.",
"i.) ' K.M.H.p.$.k / 9.H y g.H.H.d.Z.H.Z.h.u.p * z f f ( v v h w C d g.%X#XI.I.I.M.e.P C ~ H.H.M.M.M.M.M.M.c.k % 7 f f v f 8.i.u.",
"+.z ~ ,.u.) ` ' ) ~ k @.R ' } / z O.K $.) y % y 2 : 7 y j d 0 : z * j O.1.#.o./ z 0 d d ~ H.c.M.H.M.I.K.K.M.H S f k k d y u ' $.",
"Z / Y ~ a / $.~ Y k z z a a a i z h z Y ~ a ~ T a a i t k k k k k ~ ` ) ` k p k p % $ y * y y k ~ a k p a v M M k p % k ~ ) ` ~ ",
"j.K.c.c.u.` k k / ( u.u.u.u.( p ` j.H.Z.K.W.J.d.Z.W.} _ Z.Z.Z.C.g.M.g.g.c.' d.L.L.I.O.J h h C d 1 k p 1 / o.h 7 ~ O.% $.H.k.j.c.",
"N.(.Q.(.I.' ` u.i.g.g.g.g.d.a.p ] `.I.K.W.E.E.E.J.J. .) d.g.g.h.H.H.H.c.g.k u.T.I.I.M.N.k.e.@.g k K.Z.H.M.c.9.S d z k $.c.&.&.j.",
"L.(._.I.I.) u.$.u.Z.h.g.g.g.I.k ' ^.L.I.^.W.W.W.W.W. ._ Z.h.h.I.K.K.K.H.c.y / L.(.H.M.).T.N.@.w j Z.g.g.H.h.&.+.h y p O.@.&.k.L.",
"_._.Q.(.S.~ p.a.$.O.k.M.H.H.a./ ` ^._._._.^.].W.].]. ._ Z.H.K.H.H.S.H.L.c.* g S._.j.c.(.(.T.9.w y h.H.M.I.O.p.9.@.v y $.%.j.L.(.",
"Q.L.L.(.H.` g.d.h M S 9.K.M.k.z R Q.Q.Q.W.^._.].W.}. ._ Z.Z.H.N.j.S.K.L.&.* #.].~.;.L.(._.`.c.g k H.H.K.c.c.J.p.g.d.` O.p.H.^.L.",
"(.(.Q.^.L.` g.O.B n g O.k.9.9.d R ^.L.L.^.W.W.W.W.]. .' d.g.M.k.c.K.K.K.o.y s._.D.e.K.Q.(.I.N.z ~ g.H.h.H.M.H.g.K.H.~ z k.c.(.(.",
"K.L.Q.Q.K.~ i.O.d n n H @.J O.# R L.K.L.I.(.^.W.J.W. .( 9.p.j.9.k.N.M.j.@.~ s.~.l.:.K.(.L.L.M.&.$.d.h.Z.H.M.H.H.H.H.p z K.L.k.K.",
"j.c.(.L.I.R i.p.d 9 n e J J x # k S.g.K.K.L.I.I.H.W.u._ i.9.p.g.k.r.N.O.w p f.D.l.:.b.I.I.M.M.$.$.H.i.g.h.g.g.g.d.$.% M =.j.j.j.",
"&.@.j.H.M.z z &.O.h C S J h h * / K.x.S.H.M.M.H.H.W.u._ h.i.a.a.p.0.q.L m / 1.l.l.-.t.b.N.M.M.u.Y $.u.i.a.i.a.g.u.z @ w P @.&.e.",
"d * * / ` p p k R R z f d j k a p ` ` R z +.` ' ` ) ~ Y ~ s a % * 7.h H L @.@.=.-...O.%.&.u.u.$.~ m O.u.u.{ } $.H w h b F S 0 * ",
"* 1 @ * & * j k R W + O R R R R R R R j m m d 0 f 0 / O.O.v z * x w.9.u.u.p.9.#.&.R / O.&.,.` ` ` C O.' ' ) ~ R / v g H h 7 O O ",
"* d * : g d W 1.s.p.d % ` ,.,.,.,.,.,.p.d O w M 7.k.L.I.I.B.m.k / H.H.(.K.(.~.K.K.K./ %.N.L.L.Q.Q.L.K.^.u.` E.H.h.i.O.u.u.` w # ",
"j z * d z / $.u.s.f.W 1 ` ,.,.,.,.,.p.p.k . g O.[.*X).[.I.I.B.k ( I.I.I.K.L.(._.~.L.` C z.I.L._._._.(.).u.~ K.h.h.g.i.g.g.u.o.y ",
"k d k g W #.p.p.s.x./ p ,.,.,.2.p.f.f.$.* $ O.k.(.=XOX&XT.T.T.' O.[.I.B.I.(.~.~._.Q.#.*.e.I.K.(.OX].].#Xu.a Z.h.h.h.h.g.g.g.H.] ",
"~ k h z $.u.p.a.a.c.R p ,.,.,.u.p.f.S.f.d % c.`.).#XOX{.*X).*Xu.v T.T.I.oX_.oX_.~.].$.9.b.l.oX_._._.].#X,.p h.M.h.H.M.h.H.H.K.u.",
"k / z k $.f.p.g.p.c.' R ,.u.s.s.s.g.c.S./ $ &.W.).OX).).).I.I.' z (.OXOX(.OXOX].].].' g.I.=.|.#X`._.].#X$.y i.M.I.K.M.h.I.H.J.' ",
"k $./ d #.$.u.O.O.H.' R ,.p.u.s.g.g.c.k.#.O o.^.).I.).).I.I.I.k v .XOXT.OXOX(.(.`.^.` $.I.k.e._.^.^.`.#X( O $.K.K.I.I.H.I.I.H./ ",
"/ 8./ z / H H z O.H.` R u.$.u.p.g.g.g.O.z 1 O.I.I.I.I.I.T.I.a.C 7.B.*XT.*X*X).OX).I.` d.I.L.e.c.I.K.I.M.k % v h.I.I.H.L.K.J.H.k ",
"~ v ( $.( o.H z O.a.d a $.u.p.p.p.u.$.h g % &.g.M.L.I.I.I.M.z * @.w.z.).T.T.T.&XI.I.~ p.M.M.k.y.I.I.a.x # $ v i.i.M.M.I.I.M.a.k ",
"k o.O.u.u.O.O.o.O.O.* y &.@.o.v S v z d z $ d @.k.c.g.M.h.O.y % d h O.9.6.0.n.w.r.p.~ $.a.a.r.7.O.9.v g # * d $.d.h.M.M.g.g.d.R ",
"k v H k k j d * k k p 1 / z w 0 S 0 . O % < % y 7 y ` ~ p % % t d / c / ) ~ R h C h a Y a a v x H j z k j A d j W ) ` ` ` ~ R Y ",
"k.o.u.c.i.k z p.g.c.H.H.S.c.j.o.h # @ * 0 d * * d $ y z h H O.g.c.g.K.I.i.a k y h v ~ ` ~ ~ ~ c r.c.j.x.K.j.+.C m M * $.&.o.O.c.",
"(.K.L.I.p.k 9.).I.(._._.(.(.).u.* + d d d d f d z d . K t.I.`.W.(.L.L.I.u.t x q k v v O.i.a.d.' O.N.z.e.z.XX=.=.=.F * &.N.b.(.(.",
"L.L.L.~.c.k p.(.L.^._._._._.)./ . % y ~ k k ` $.$.z $ &.I.^.K.(.I.L.I.I.' t r q f f v O.v u.c.` k j.XXl.j.K.+.=.=.e.j 9.L.K.~.XX",
"(.Q._.Q.S.) H._.(._.(.#X#X#X(./ < a y ` ) ) ' d.u./ * g._.~.Q.(._.(._.a.x v e 8 q f x v H 9.9.k j @.j.OX;.b.e.=.;.b.o.g.L.K.~.L.",
"_.]._._.S.` H.^._._.(.].#X].j.C H $.) ` u.} i.g.d.( y g._._._.^._.`.{.9.M A S e e e e H p.&.@.k d =.l.l.D.K.l.j.j.K.J p.(.~.(.L.",
"(._._._.g.' g.K.I.(._._.].K.=.H g ( _ ' } i.g.g.g./ / g.`.(.(.^.I.I.M.9.M M M v S f v M J H +.d d ;.4.4.XXK.*.j.c.c.z a.K.Q.Q.Q.",
"Q._.Q._.u.k g.(.I.^.^.K.^.9.+.h / ^ ^ { u.d.d.i.v / z @.L.I.I.L.I.I.M.J 0 % x H M h &.M g M C d * &.x.4.j.j.*.j.j.j./ g.L.Q.^.Q.",
"(.Q.Q._.u.d O.c.(.I.J.H.h.O.H d ) ^ _ { u.u.{ ( H h M K M.L.I.I.M.M.M.z # % f f 0 g &.H g C +.d & A ;.v.D.j.j.e.j.&./ g.K.Q.L.Q.",
"(.`.Q.L.g.~ H @.&.9.c.g.u.O.z d a ^ [ | { ( / k w b b B @.M.I.M.h.g.g.8.d % h v ( v O.o., - g d & +.;.C +.&.e.&.e.+.z g.I.L.(._.",
"d.a.s.g.u.R v z 2 z z d d y d y . % a a y t % O % w M b g $.i.a.0.8.u.` ) % d / / j d : = 5 & * 2 2 #.z g M +.$.o.z k u.H.g.g.c.",
"' ,.u.u.u.,.' $.$.' ~ k z k d 7 y y * # * y f t k n : w w k c k @.` ~ ~ Y a ~ ( p % O t m N p p 1 1 1 1 d m C ` ` / u.u.u.u.$.' ",
"u.^.L.L.L.(.K.I.L.(.$.z &.9.p.+.C g g B b k f H K w 0 w F &.j.o.H O.o.$.a.d.H.g.$.o.z W <.W ` 2.#.#.z z C & z L.K.(.`.^.I.I.I.S.",
"' K.^.(.Q._.^.I.I.).` z j.I.K.&.o.K +.M h k O.O.@.M S @.k.L.N.O.% g o.$.g.h.c.L.H.O.d p ` $.,.f.f.f.f.f.1.1 $.I.L._.(._.I.L.I.c.",
"' Q._.#X_.(._.^.L.^.` z c.L.W.L.z.y.k.@.H k O.r.k.k.N.L._.(.).M.y z a.d.M.M.g.H.L.K.j p $.<.f.f.s.s.f.f.H.j u.Q._.#X_.(.(.L.I.g.",
"` Q.#X].]._._.^.W._.$./ _.(. Xm.k.L.(.k.@.k p.M.M.(.~.K.(.L.Q.c.a $.k.K.L.K.p.&.p.j.j p ,.2.f.f.f.f.S.C.x.j u.]._.#X].(.OX_._.c.",
"` E.#X#X#X_.`._.^.(.` ( `.z.y.N.N.(.j.@.O.k M.^.(.~.K.L.(.(.`.H.o.u.h.K.H.H.p.O.H &.d Y ,.s.c.f.s.f.f.x.H 7 u.]._.#X_.(._.(.).g.",
"$.Q.]._._._._.`.^.Q.,.$.z.e.z.e.&.@.G @.J k H.I.L.L.K.K.(.(.L.9.z ` a.Z.H.I.g.&.@.&.k p ` p.x.x.f.s.f.g.9.d ,._.(.(.(.(.^.I.I.g.",
"$.^.).^.L.^.^.(.Q.(.,.&.L k.I.g.9.9.J J H ) H.L.Q.L.K.K.~.(.L.g.~ $./ u.g.H.g.M n M R Y ,.s.f.f.p.s.f.k.@.d $._.I.I.I.^.I.I.I.g.",
"` J.I.M.M.I.I.I.^.(.,./ p.H.I.a.0.I L D x j M.L.L.~.Q.K.~.~.L.s.~ / d f $.$.8.v - g d Y ' ,.p.f.g.c.c.o.x j 8.I.M.L.I.I.I.M.H.d.",
"` M.I.M.I.M.M.M.H.c.o.z H.8.O.6.J G D x x 7 c.L.S.L.c.c.K.K.H.f.R d d d 0 : h g d g j Y p.p.f.p.p.a.8.O.J k $.K.M.M.I.I.I.h.M.g.",
"~ u.p.u.u.' $.O./ ) A m H k 0 v C K v v c p ' u.$.$.K z z ,.,.$.k y y p y + % 1 p R Y U ` ,.u.O.d ( v v v j ` g.p.p.p.d.i.u.u.u.",
"$.u.' ` R i a v a ~ C m C / ~ ) d h k d R / / p * d d & d #.p.f.f.c.g.g.u.~ s.d.p.s.u.,.,.u.u.R $ % y y y 7 k ( / O.T ' u.,.u.,.",
"(.(.H.K.c.) ~ ' ) o.e.u.A @.i.u.y J r.@.e.K.(.p.K K * : M %.XX#XoXT.I.).S.R S.OX~.Q.~.(.(.(.~.j # e e h H h v 8.u.d.,.u.H.L.L.L.",
"I.I.(.L.g.) ' ' ' 9.d.g.a.&.a.u.p 7.k.k.L.(.L.].j.S : g +.x._._.(.(.L.I.g.1 o.K._.~.~.~.Q.L.k.j @ n 9 h O.9.M.I.h.h.' ,.K.L.L.L.",
"K.L.L.K.H.` ) u.g.s.h.h.h.9.M.s.1 9.N.L._._._._.].f.2 z ~._.#X@X(.oX_.(.g.1 o.x.]._._._.(.^.9.d # 9 # f 9.Z.K.I.I.H.) ,.I.L.L.L.",
"Q.Q.K.H.L.k ` g.g.H.M.I.I.M.K.p.& 9._.].].(.].].#X'.l #.#X_.]._.(.OX_.`.p.j &.D._._.(._._.(.j.z @ 9 g 9.e.H.K.K.J.H.~ $.^.L.H.K.",
"oX(.K.L.L.R u.K.H.K.K.K.Q.L.(.s.$ p.~.Q._._.].].].Q...<.#X_._.(.(.^.I.I.p.y O.b._.`.^.L.L.e.@./ # 8 v a.&.M.L.I.H.J.' $.(.Q.L.L.",
"oXQ.L.Q.K.j i.K.K.K.F.K.Q.K.^.,.& x.~.K.Q._._._._.Q.l ` #X~.L.(._.I.I.M.O.k +.e.L._.c.j.@.K @./ * f g O.p.9.K.H.H.J.) ,._.L.L._.",
"(.L.K.~.S.1 ,.M.x.F.F.G.L.L.L./ & %.F.L.L._.#X_.Q.x.; ! _.K.K.L.^.).^.a.g j O.@.e.k.K L L o.9./ 7 v f z O.o.g.H.M.H.v J Q.^.L.L.",
"K.L.XXj.%.2 $.S.C.g.F.F.F.G.x.l & V f.F.L.S.3.<.5.+.2 #.L.S.F.K.L.M.9.K 0 y H G @.@.L S 9.H J z : v z v O.v O.a.a.d.z B =.k.Q.L.",
"H.M.c.o.h 1 z o.f.A.A.V.A.2...; o g >.3.<.E , , m V l ` V.3.s.g.O.g , g g #.o.H H H v o.O.z h C C g * 7 k d f ( d.a.h b n @.c.M.",
"1 1 j j 1 1 1 1 p Q ` j j j 1 1 1 j W W E * & : m > & R l 2 1 2 4 R ` ' ] $.' ' ` ` ` o.k p j z h g :   . $ x O.` p w b w w B H ",
"+ . ` g.s.s.,.f.f.2.f.3.` ,.3.s.V.f.f.f.3.#.: & 3 6 m V 5 N ; > m R E.#X#X_.#X].(.L._.%.& o.H o.C o.C w w m @.v p $ % w b p v f ",
"/ % ` `.K.~.L.~._.Q.~.G.W 3.3.3.f.f.f.f.s.f.! d A X.A V 6 3 3 3 N d K.#X_.].OX#X_.(.`.H.* p.k.&.j.K.b.+.K B g a ) d y d h ' u.` ",
"u.t ` I.L.L.L.Q.L.Q._.j.W 2.s.f.S.S.c.f.f.S.f.W %.+.V Z Z Z V m C W S._._._.(._.#X_.*XH.k H.I.c.L.~.].D.%.o.k a ` ) y 7 k u.u.u.",
"i.p p L.(.(._._._._.K.x.O.p.f.g.S.H.S.F.K.E.S.z C C X.C C X.X.m +.$.L.#X_.^._.#X`.W.#Xj.) E.^.].#XOX].D.j.@.W a ( k * h z u.d.i.",
"u.a k K._.OX_._._._.j.&.v u.H.S.K.H.K.E.E.W.g./ C V %.C A <.%.+.%.$.S.#X_.W._.`.(._._.x.` Q.`._._.(._.~.j.@.) < d y 0 h h ( $.i."
};
